<svg width="20" height="20" viewBox="0 0 20 20" fill="none" xmlns="http://www.w3.org/2000/svg">
<path fill-rule="evenodd" clip-rule="evenodd" d="M10 0C8.02219 0 6.08879 0.58649 4.4443 1.6853C2.79981 2.78412 1.51809 4.3459 0.761209 6.17317C0.00433284 8.00043 -0.193701 10.0111 0.192152 11.9509C0.578004 13.8907 1.53041 15.6725 2.92894 17.0711C4.32746 18.4696 6.10929 19.422 8.0491 19.8079C9.98891 20.1937 11.9996 19.9957 13.8268 19.2388C15.6541 18.4819 17.2159 17.2002 18.3147 15.5557C19.4135 13.9112 20 11.9778 20 10C20 8.68678 19.7413 7.38642 19.2388 6.17317C18.7363 4.95991 17.9997 3.85752 17.0711 2.92893C16.1425 2.00035 15.0401 1.26375 13.8268 0.761205C12.6136 0.258658 11.3132 0 10 0ZM10 18C8.13732 18.008 6.33021 17.3658 4.89032 16.1842C3.45043 15.0025 2.46802 13.3554 2.11252 11.5269C1.75702 9.69843 2.05071 7.80322 2.94293 6.16811C3.83516 4.53299 5.27 3.26047 7 2.57C6.98972 2.71315 6.98972 2.85685 7 3C7 3.79565 7.31607 4.55871 7.87868 5.12132C8.44129 5.68393 9.20436 6 10 6C10.2652 6 10.5196 5.89464 10.7071 5.70711C10.8946 5.51957 11 5.26522 11 5C11 4.73478 10.8946 4.48043 10.7071 4.29289C10.5196 4.10536 10.2652 4 10 4C9.73479 4 9.48043 3.89464 9.2929 3.70711C9.10536 3.51957 9 3.26522 9 3C9 2.73478 9.10536 2.48043 9.2929 2.29289C9.48043 2.10536 9.73479 2 10 2C12.1217 2 14.1566 2.84285 15.6569 4.34315C17.1572 5.84344 18 7.87827 18 10C18 12.1217 17.1572 14.1566 15.6569 15.6569C14.1566 17.1571 12.1217 18 10 18Z" fill="#7A1E43"/>
<path d="M7.88057 9.406C7.99045 9.57045 8.0491 9.76379 8.0491 9.96157C8.0491 10.2268 7.94374 10.4811 7.75621 10.6687C7.56867 10.8562 7.31432 10.9616 7.0491 10.9616C6.85132 10.9616 6.65798 10.9029 6.49353 10.793C6.32908 10.6832 6.20091 10.527 6.12522 10.3443C6.04953 10.1615 6.02973 9.96046 6.06832 9.76648C6.1069 9.5725 6.20214 9.39432 6.34199 9.25446C6.48185 9.11461 6.66003 9.01937 6.85401 8.98079C7.04799 8.9422 7.24906 8.962 7.43179 9.03769C7.61451 9.11338 7.77069 9.24155 7.88057 9.406Z" fill="#7A1E43"/>
<path fill-rule="evenodd" clip-rule="evenodd" d="M12.4444 9.14932C12.6089 9.03943 12.8022 8.98079 13 8.98079C13.2652 8.98079 13.5196 9.08614 13.7071 9.27368C13.8946 9.46122 14 9.71557 14 9.98079C14 10.1786 13.9414 10.3719 13.8315 10.5364C13.7216 10.7008 13.5654 10.829 13.3827 10.9047C13.2 10.9804 12.9989 11.0002 12.8049 10.9616C12.6109 10.923 12.4328 10.8277 12.2929 10.6879C12.153 10.548 12.0578 10.3699 12.0192 10.1759C11.9806 9.98189 12.0004 9.78083 12.0761 9.5981C12.1518 9.41538 12.28 9.2592 12.4444 9.14932Z" fill="#7A1E43"/>
</svg>
