<svg xmlns="http://www.w3.org/2000/svg" xmlns:xlink="http://www.w3.org/1999/xlink" width="1800" zoomAndPan="magnify" viewBox="0 0 1350 1349.999938" height="1800" preserveAspectRatio="xMidYMid meet" version="1.0"><defs><clipPath id="e3c82188bd"><path d="M 67.597656 67.601562 L 432.320312 67.601562 L 432.320312 678.320312 L 67.597656 678.320312 Z M 67.597656 67.601562 " clip-rule="nonzero"/></clipPath><clipPath id="d6dcde4663"><path d="M 432.398438 142.601562 L 432.398438 603.390625 C 432.398438 623.28125 424.496094 642.355469 410.429688 656.421875 C 396.367188 670.488281 377.289062 678.386719 357.398438 678.386719 L 142.597656 678.386719 C 122.707031 678.386719 103.632812 670.488281 89.566406 656.421875 C 75.5 642.355469 67.597656 623.28125 67.597656 603.390625 L 67.597656 142.601562 C 67.597656 122.707031 75.5 103.632812 89.566406 89.566406 C 103.632812 75.503906 122.707031 67.601562 142.597656 67.601562 L 357.398438 67.601562 C 377.289062 67.601562 396.367188 75.503906 410.429688 89.566406 C 424.496094 103.632812 432.398438 122.707031 432.398438 142.601562 Z M 432.398438 142.601562 " clip-rule="nonzero"/></clipPath><clipPath id="3709a4fe5d"><rect x="0" width="499" y="0" height="748"/></clipPath></defs><g transform="matrix(1, 0, 0, 1, 425, 302)"><g clip-path="url(#3709a4fe5d)"><g clip-path="url(#e3c82188bd)"><g clip-path="url(#d6dcde4663)"><path stroke-linecap="butt" transform="matrix(0.71937, 0, 0, 0.71937, 67.598992, 67.57692)" fill="none" stroke-linejoin="miter" d="M 507.109544 104.292133 L 507.109544 744.837326 C 507.109544 772.487384 496.124456 799.002551 476.570674 818.556333 C 457.022322 838.110115 430.501724 849.089773 402.851667 849.089773 L 104.25602 849.089773 C 76.605963 849.089773 50.090795 838.110115 30.537013 818.556333 C 10.983231 799.002551 -0.00185663 772.487384 -0.00185663 744.837326 L -0.00185663 104.292133 C -0.00185663 76.636645 10.983231 50.121478 30.537013 30.567696 C 50.090795 11.019344 76.605963 0.0342562 104.25602 0.0342562 L 402.851667 0.0342562 C 430.501724 0.0342562 457.022322 11.019344 476.570674 30.567696 C 496.124456 50.121478 507.109544 76.636645 507.109544 104.292133 Z M 507.109544 104.292133 " stroke="#7a1e43" stroke-width="45.873463" stroke-opacity="1" stroke-miterlimit="4"/></g></g><path stroke-linecap="butt" transform="matrix(0.71937, 0.000000000000000323, -0.000000000000000323, 0.71937, 67.598992, 556.575401)" fill="none" stroke-linejoin="miter" d="M -0.00185663 9.001459 L 507.114974 9.001459 " stroke="#7a1e43" stroke-width="18" stroke-opacity="1" stroke-miterlimit="4"/><path stroke-linecap="round" transform="matrix(0.71937, 0.000000000000001984, -0.000000000000001984, 0.71937, 220.349369, 606.21474)" fill="none" stroke-linejoin="miter" d="M 13.002703 12.999798 L 69.43771 12.999798 " stroke="#7a1e43" stroke-width="26" stroke-opacity="1" stroke-miterlimit="4"/><path fill="#7a1e43" d="M 186.703125 413.609375 C 190.847656 413.609375 195.113281 414.523438 199.601562 415.578125 C 207.453125 417.425781 215.292969 418.71875 223.089844 418.71875 C 246.539062 418.71875 269.492188 410.035156 290.496094 393.761719 C 295.226562 390.128906 299.503906 386.027344 303.332031 381.457031 C 307.160156 376.886719 310.445312 371.953125 313.195312 366.664062 C 314.476562 364.183594 315.613281 361.636719 316.605469 359.027344 C 317.59375 356.414062 318.433594 353.753906 319.117188 351.046875 C 319.800781 348.339844 320.328125 345.601562 320.695312 342.835938 C 321.066406 340.066406 321.273438 337.285156 321.320312 334.492188 C 321.371094 331.703125 321.257812 328.914062 320.984375 326.136719 C 320.714844 323.355469 320.28125 320.601562 319.691406 317.875 C 319.101562 315.144531 318.355469 312.457031 317.457031 309.8125 C 316.558594 307.167969 315.511719 304.585938 314.3125 302.0625 C 309.347656 291.496094 302.019531 282.0625 292.523438 274.085938 C 272.273438 257.054688 245.65625 248.601562 218.984375 248.601562 C 190.421875 248.601562 161.824219 258.292969 141.050781 277.503906 C 125.492188 291.890625 116.699219 310.863281 116.289062 330.96875 C 115.875 351.226562 124.011719 370.820312 139.203125 386.164062 C 139.667969 386.613281 140.09375 387.101562 140.476562 387.628906 C 140.316406 388.132812 140.121094 388.621094 139.886719 389.09375 C 136.851562 395.503906 134.019531 402.035156 131.648438 407.585938 C 129.082031 413.585938 130.332031 420.367188 134.835938 424.875 C 137.550781 427.59375 140.957031 428.996094 144.425781 428.996094 C 146.851562 428.980469 149.113281 428.359375 151.203125 427.132812 C 153.085938 426.039062 154.773438 425 156.363281 423.941406 C 166.804688 416.941406 176.382812 413.609375 186.703125 413.609375 Z M 148.488281 410.453125 C 147.730469 410.960938 146.933594 411.46875 146.085938 411.984375 C 148.1875 407.101562 150.59375 401.613281 153.121094 396.28125 C 154.394531 393.558594 156.023438 389.390625 155.125 384.5625 C 154.273438 379.96875 151.445312 376.679688 149.386719 374.605469 C 137.292969 362.394531 130.808594 347.019531 131.128906 331.3125 C 131.449219 315.769531 138.417969 300.929688 150.757812 289.519531 C 168.628906 272.988281 193.839844 264.652344 219.019531 264.652344 C 242.492188 264.652344 265.933594 271.910156 283.351562 286.554688 C 298.59375 299.371094 306.804688 316.285156 306.476562 334.1875 C 306.15625 351.988281 297.382812 368.445312 281.792969 380.523438 C 263.378906 394.785156 243.355469 402.070312 222.964844 402.070312 C 216.144531 402.0625 209.417969 401.269531 202.785156 399.699219 C 197.46875 398.410156 192.078125 397.75 186.609375 397.71875 C 173.5625 397.707031 161.347656 401.859375 148.488281 410.453125 Z M 148.488281 410.453125 " fill-opacity="1" fill-rule="nonzero"/><path fill="#7a1e43" d="M 187.773438 333.46875 C 187.773438 334.339844 187.691406 335.203125 187.535156 336.054688 C 187.375 336.910156 187.140625 337.738281 186.828125 338.542969 C 186.515625 339.347656 186.136719 340.113281 185.683594 340.835938 C 185.230469 341.5625 184.714844 342.230469 184.140625 342.847656 C 183.566406 343.460938 182.941406 344.011719 182.261719 344.496094 C 181.585938 344.980469 180.871094 345.386719 180.121094 345.722656 C 179.367188 346.054688 178.59375 346.304688 177.792969 346.476562 C 176.996094 346.644531 176.191406 346.730469 175.375 346.730469 C 174.5625 346.730469 173.757812 346.644531 172.957031 346.476562 C 172.160156 346.304688 171.386719 346.054688 170.632812 345.722656 C 169.882812 345.386719 169.167969 344.980469 168.488281 344.496094 C 167.8125 344.011719 167.1875 343.460938 166.613281 342.847656 C 166.035156 342.230469 165.523438 341.5625 165.070312 340.835938 C 164.617188 340.113281 164.234375 339.347656 163.925781 338.542969 C 163.613281 337.738281 163.378906 336.910156 163.21875 336.054688 C 163.0625 335.203125 162.980469 334.339844 162.980469 333.46875 C 162.980469 332.597656 163.0625 331.734375 163.21875 330.882812 C 163.378906 330.027344 163.613281 329.199219 163.925781 328.394531 C 164.234375 327.589844 164.617188 326.824219 165.070312 326.101562 C 165.523438 325.375 166.035156 324.707031 166.613281 324.089844 C 167.1875 323.476562 167.8125 322.925781 168.488281 322.441406 C 169.167969 321.957031 169.882812 321.550781 170.632812 321.214844 C 171.386719 320.882812 172.160156 320.628906 172.957031 320.460938 C 173.757812 320.292969 174.5625 320.207031 175.375 320.207031 C 176.191406 320.207031 176.996094 320.292969 177.792969 320.460938 C 178.59375 320.628906 179.367188 320.882812 180.121094 321.214844 C 180.871094 321.550781 181.585938 321.957031 182.261719 322.441406 C 182.941406 322.925781 183.566406 323.476562 184.140625 324.089844 C 184.714844 324.707031 185.230469 325.375 185.683594 326.101562 C 186.136719 326.824219 186.515625 327.589844 186.828125 328.394531 C 187.140625 329.199219 187.375 330.027344 187.535156 330.882812 C 187.691406 331.734375 187.773438 332.597656 187.773438 333.46875 Z M 187.773438 333.46875 " fill-opacity="1" fill-rule="nonzero"/><path fill="#7a1e43" d="M 231.097656 333.46875 C 231.097656 334.339844 231.019531 335.203125 230.859375 336.054688 C 230.699219 336.910156 230.464844 337.738281 230.152344 338.542969 C 229.84375 339.347656 229.460938 340.113281 229.007812 340.835938 C 228.554688 341.5625 228.042969 342.230469 227.46875 342.847656 C 226.890625 343.460938 226.265625 344.011719 225.589844 344.496094 C 224.910156 344.980469 224.199219 345.386719 223.445312 345.722656 C 222.695312 346.054688 221.917969 346.304688 221.121094 346.476562 C 220.324219 346.644531 219.515625 346.730469 218.703125 346.730469 C 217.886719 346.730469 217.082031 346.644531 216.285156 346.476562 C 215.484375 346.304688 214.710938 346.054688 213.957031 345.722656 C 213.207031 345.386719 212.492188 344.980469 211.816406 344.496094 C 211.140625 344.011719 210.511719 343.460938 209.9375 342.847656 C 209.363281 342.230469 208.847656 341.5625 208.394531 340.835938 C 207.945312 340.113281 207.5625 339.347656 207.25 338.542969 C 206.9375 337.738281 206.703125 336.910156 206.546875 336.054688 C 206.386719 335.203125 206.308594 334.339844 206.308594 333.46875 C 206.308594 332.597656 206.386719 331.734375 206.546875 330.882812 C 206.703125 330.027344 206.9375 329.199219 207.25 328.394531 C 207.5625 327.589844 207.945312 326.824219 208.394531 326.101562 C 208.847656 325.375 209.363281 324.707031 209.9375 324.089844 C 210.511719 323.476562 211.140625 322.925781 211.816406 322.441406 C 212.492188 321.957031 213.207031 321.550781 213.957031 321.214844 C 214.710938 320.882812 215.484375 320.628906 216.285156 320.460938 C 217.082031 320.292969 217.886719 320.207031 218.703125 320.207031 C 219.515625 320.207031 220.324219 320.292969 221.121094 320.460938 C 221.917969 320.628906 222.695312 320.882812 223.445312 321.214844 C 224.199219 321.550781 224.910156 321.957031 225.589844 322.441406 C 226.265625 322.925781 226.890625 323.476562 227.46875 324.089844 C 228.042969 324.707031 228.554688 325.375 229.007812 326.101562 C 229.460938 326.824219 229.84375 327.589844 230.152344 328.394531 C 230.464844 329.199219 230.699219 330.027344 230.859375 330.882812 C 231.019531 331.734375 231.097656 332.597656 231.097656 333.46875 Z M 231.097656 333.46875 " fill-opacity="1" fill-rule="nonzero"/><path fill="#7a1e43" d="M 274.421875 333.46875 C 274.421875 334.339844 274.34375 335.203125 274.183594 336.054688 C 274.027344 336.910156 273.792969 337.738281 273.480469 338.542969 C 273.167969 339.347656 272.785156 340.113281 272.335938 340.835938 C 271.882812 341.5625 271.367188 342.230469 270.792969 342.847656 C 270.21875 343.460938 269.589844 344.011719 268.914062 344.496094 C 268.238281 344.980469 267.523438 345.386719 266.773438 345.722656 C 266.019531 346.054688 265.246094 346.304688 264.445312 346.476562 C 263.648438 346.644531 262.84375 346.730469 262.027344 346.730469 C 261.214844 346.730469 260.410156 346.644531 259.609375 346.476562 C 258.8125 346.304688 258.035156 346.054688 257.285156 345.722656 C 256.53125 345.386719 255.820312 344.980469 255.140625 344.496094 C 254.464844 344.011719 253.839844 343.460938 253.261719 342.847656 C 252.6875 342.230469 252.175781 341.5625 251.722656 340.835938 C 251.269531 340.113281 250.886719 339.347656 250.578125 338.542969 C 250.265625 337.738281 250.03125 336.910156 249.871094 336.054688 C 249.710938 335.203125 249.632812 334.339844 249.632812 333.46875 C 249.632812 332.597656 249.710938 331.734375 249.871094 330.882812 C 250.03125 330.027344 250.265625 329.199219 250.578125 328.394531 C 250.886719 327.589844 251.269531 326.824219 251.722656 326.101562 C 252.175781 325.375 252.6875 324.707031 253.261719 324.089844 C 253.839844 323.476562 254.464844 322.925781 255.140625 322.441406 C 255.820312 321.957031 256.53125 321.550781 257.285156 321.214844 C 258.035156 320.882812 258.8125 320.628906 259.609375 320.460938 C 260.410156 320.292969 261.214844 320.207031 262.027344 320.207031 C 262.84375 320.207031 263.648438 320.292969 264.445312 320.460938 C 265.246094 320.628906 266.019531 320.882812 266.773438 321.214844 C 267.523438 321.550781 268.238281 321.957031 268.914062 322.441406 C 269.589844 322.925781 270.21875 323.476562 270.792969 324.089844 C 271.367188 324.707031 271.882812 325.375 272.335938 326.101562 C 272.785156 326.824219 273.167969 327.589844 273.480469 328.394531 C 273.792969 329.199219 274.027344 330.027344 274.183594 330.882812 C 274.34375 331.734375 274.421875 332.597656 274.421875 333.46875 Z M 274.421875 333.46875 " fill-opacity="1" fill-rule="nonzero"/><path fill="#7a1e43" d="M 368.464844 317.589844 C 378.691406 307.035156 384.152344 293.613281 383.871094 279.722656 C 383.585938 265.726562 377.492188 252.53125 366.707031 242.5625 C 359.738281 236.167969 351.816406 231.339844 342.945312 228.074219 C 338.582031 226.464844 334.121094 225.222656 329.554688 224.355469 C 324.988281 223.484375 320.378906 223 315.734375 222.894531 C 311.085938 222.789062 306.460938 223.066406 301.859375 223.726562 C 297.257812 224.390625 292.742188 225.425781 288.3125 226.835938 C 279.292969 229.699219 271.144531 234.164062 263.878906 240.226562 C 261.539062 242.1875 259.359375 244.3125 257.34375 246.601562 C 258.445312 246.945312 259.542969 247.292969 260.636719 247.660156 C 264.886719 249.097656 269.042969 250.765625 273.105469 252.664062 C 295.972656 233.484375 335.164062 234.375 357.015625 254.578125 C 364.578125 261.566406 368.851562 270.617188 369.042969 280.0625 C 369.238281 289.625 365.257812 299 357.832031 306.496094 C 352.710938 311.664062 351.734375 317.378906 354.855469 323.949219 C 355.230469 324.75 355.613281 325.570312 356.007812 326.425781 C 349.085938 322.730469 342.296875 320.9375 335.148438 320.9375 C 332.8125 320.941406 330.488281 321.121094 328.175781 321.480469 C 328.820312 325.839844 329.101562 330.21875 329.019531 334.621094 C 329 335.5625 328.964844 336.503906 328.914062 337.441406 C 337.792969 335.761719 345.089844 337.492188 353.671875 343.230469 L 353.804688 343.316406 C 354.378906 343.703125 354.984375 344.039062 355.613281 344.324219 C 356.246094 344.609375 356.898438 344.835938 357.566406 345.007812 C 358.238281 345.183594 358.917969 345.296875 359.609375 345.351562 C 360.300781 345.40625 360.992188 345.402344 361.679688 345.339844 C 362.371094 345.273438 363.050781 345.152344 363.71875 344.972656 C 364.386719 344.792969 365.035156 344.554688 365.664062 344.261719 C 366.292969 343.972656 366.890625 343.628906 367.457031 343.234375 C 368.027344 342.835938 368.558594 342.398438 369.050781 341.910156 C 373.335938 337.847656 374.59375 331.390625 372.183594 325.828125 C 370.800781 322.675781 369.609375 320.035156 368.464844 317.589844 Z M 368.464844 317.589844 " fill-opacity="1" fill-rule="nonzero"/></g></g></svg>