<svg width="21" height="22" viewBox="0 0 21 22" fill="none" xmlns="http://www.w3.org/2000/svg">
<path d="M11.019 2C14.899 2 18.019 5.14 18.019 9C18.019 11.8 16.389 14.19 14.019 15.31V20H7.01896V17H6.01896C4.90896 17 4.01896 16.11 4.01896 15V12H2.51896C2.09896 12 1.85896 11.5 2.09896 11.19L4.01896 8.66C4.10707 6.86329 4.88319 5.16939 6.18644 3.92945C7.48968 2.6895 9.2201 1.99861 11.019 2ZM11.019 0C6.42896 0 2.62896 3.42 2.07896 7.9L0.518961 10H0.488961L0.468961 10.03C-0.081039 10.79 -0.151039 11.79 0.278961 12.62C0.638961 13.31 1.27896 13.79 2.01896 13.94V15C2.01896 16.85 3.29896 18.42 5.01896 18.87V22H16.019V16.5C18.519 14.83 20.019 12.06 20.019 9C20.019 4.03 15.979 0 11.019 0ZM15.019 7.83C15.019 9.37 13.659 10.6 11.599 12.47L11.019 13L10.439 12.47C8.37896 10.6 7.01896 9.37 7.01896 7.83C7.01896 6.63 7.97896 5.64 9.17896 5.63H9.21896C9.90896 5.63 10.569 5.94 11.019 6.46C11.469 5.94 12.129 5.63 12.819 5.63C14.019 5.62 15.019 6.59 15.019 7.79V7.83Z" fill="#7A1E43"/>
</svg>
