<svg width="21" height="21" viewBox="0 0 21 21" fill="none" xmlns="http://www.w3.org/2000/svg">
<path fill-rule="evenodd" clip-rule="evenodd" d="M14.5783 0.142954C14.4573 0.164706 14.3417 0.211077 14.2381 0.279391C14.1345 0.347705 14.045 0.436609 13.9747 0.540974C13.9044 0.645338 13.8548 0.763097 13.8286 0.887454C13.8025 1.01181 13.8003 1.14031 13.8223 1.26552C13.8686 1.51944 14.0098 1.74411 14.2152 1.8906C14.4206 2.03708 14.6734 2.09351 14.9188 2.04759C15.1167 2.01131 15.3157 1.97659 15.5157 1.94342C15.7332 1.90921 15.9012 2.01494 15.9732 2.16109C16.6871 3.59928 17.3231 5.01882 17.764 6.48656C17.1971 6.75398 16.5626 7.05872 15.9297 7.37746C15.8396 8.10512 15.7185 8.82829 15.5667 9.54486V9.55108L15.5622 9.56507C15.4042 10.3145 15.1962 11.068 14.9383 11.8258C14.7223 12.4523 14.2333 13.0494 13.7354 13.5718C13.1279 14.2093 13.4234 15.2665 14.2798 15.1422L14.9473 17.7884C14.0973 18.0735 13.2534 18.4104 12.4155 18.7991C12.2815 18.8601 12.1606 18.9482 12.0597 19.0581C11.9588 19.168 11.88 19.2976 11.8278 19.4394C11.7756 19.5811 11.7511 19.7322 11.7557 19.8839C11.7603 20.0355 11.7939 20.1847 11.8545 20.3228C12.1095 20.9011 12.7754 21.1592 13.3409 20.898C15.4538 19.9105 17.7029 19.272 20.0064 19.0058C20.152 18.9894 20.293 18.9433 20.4214 18.8703C20.5498 18.7974 20.6631 18.6988 20.7548 18.5804C20.8464 18.462 20.9147 18.326 20.9556 18.1803C20.9965 18.0345 21.0093 17.8818 20.9933 17.7309C20.9565 17.426 20.8051 17.1484 20.572 16.9586C20.3389 16.7688 20.0429 16.682 19.7484 16.7172C18.8505 16.8239 17.9725 16.9768 17.1146 17.1758L16.4501 14.5467C19.0404 13.4661 20.5418 10.6503 20.0319 7.85323C19.5969 5.47904 18.6595 3.32408 17.6501 1.28884C17.4226 0.840206 17.0645 0.477318 16.6267 0.251779C16.1888 0.0262406 15.6936 -0.0504674 15.2112 0.0325626C14.9993 0.0667683 14.7883 0.104602 14.5783 0.142954ZM6.09645 0.164721C5.61606 0.0908011 5.12536 0.171662 4.69076 0.39636C4.25617 0.621058 3.89866 0.978743 3.66663 1.421C2.62122 3.45313 1.64479 5.60654 1.17233 7.96829C0.913564 9.25014 1.08447 10.5852 1.65679 11.7527C2.28456 13.0352 3.34208 14.0364 4.63106 14.5684L3.92461 17.1774C3.03608 16.9869 2.13837 16.8458 1.23532 16.7545C0.938369 16.7242 0.641964 16.8174 0.411312 17.0136C0.18066 17.2099 0.0346554 17.493 0.00541751 17.8009C-0.0238203 18.1087 0.0661035 18.416 0.255407 18.6551C0.44471 18.8941 0.717886 19.0455 1.01484 19.0758C2.17564 19.1914 3.32602 19.4004 4.45557 19.7008C5.55799 19.9931 6.6349 20.3756 7.71332 20.8545C7.9878 20.9762 8.29765 20.9798 8.57472 20.8646C8.85178 20.7494 9.07336 20.5249 9.19071 20.2404C9.30806 19.9558 9.31156 19.6346 9.20046 19.3474C9.08935 19.0602 8.87273 18.8305 8.59825 18.7089C7.78328 18.348 6.95072 18.0314 6.10395 17.7604L6.80889 15.1577C9.57168 15.5464 12.246 13.8828 13.1684 11.1961C13.4024 10.5197 13.5854 9.83872 13.7324 9.15616L13.7354 9.14061C14.0833 7.52361 14.2273 5.88796 14.3113 4.28962C14.3348 3.78454 14.202 3.28489 13.9322 2.86363C13.6623 2.44237 13.2696 2.12158 12.8114 1.94808C10.6447 1.09441 8.39222 0.496191 6.09645 0.164721ZM11.9055 8.73169L11.907 8.72237C12.222 7.2624 12.357 5.74958 12.4395 4.18234C12.4485 4.0253 12.357 3.8465 12.1485 3.76565C10.1113 2.96177 7.99302 2.39899 5.83397 2.08801C5.73434 2.06996 5.63177 2.08397 5.54006 2.12817C5.44835 2.17237 5.3719 2.24463 5.32101 2.33523C4.29809 4.32538 3.42515 6.27977 3.00969 8.36165C2.97971 8.51999 2.95768 8.67983 2.94369 8.84053C4.34458 8.70993 6.11295 8.57621 7.49134 8.58088C8.82324 8.58554 10.5316 8.71926 11.8785 8.8483L11.9055 8.73169Z" fill="#7A1E43"/>
</svg>
