<svg width="23" height="20" viewBox="0 0 23 20" fill="none" xmlns="http://www.w3.org/2000/svg">
<mask id="path-1-inside-1_38_178" fill="white">
<path d="M20.2509 16.3059C20.99 16.663 21.6009 17.1652 22.0836 17.8125C22.5663 18.4598 22.8718 19.189 23 20H21.7555C21.6726 19.5759 21.518 19.1816 21.2917 18.817C21.0654 18.4524 20.7901 18.1399 20.4658 17.8795C20.1415 17.6191 19.7757 17.4108 19.3684 17.2545C18.9611 17.0983 18.5388 17.0239 18.1013 17.0313C17.6563 17.0313 17.234 17.1057 16.8342 17.2545C16.4345 17.4033 16.0687 17.6079 15.7368 17.8683C15.405 18.1288 15.1297 18.445 14.911 18.817C14.6922 19.189 14.5376 19.5833 14.4471 20H13.2027C13.3233 19.1964 13.625 18.471 14.1077 17.8237C14.5904 17.1764 15.2051 16.6704 15.9518 16.3059C15.5219 15.9711 15.19 15.5656 14.9562 15.0894C14.7224 14.6132 14.6017 14.1072 14.5942 13.5715C14.5942 13.2367 14.6394 12.9131 14.73 12.6006C14.8205 12.2881 14.9562 11.9942 15.1372 11.7189C15.3182 11.4436 15.5332 11.1981 15.7821 10.9823C16.031 10.7665 16.3101 10.5842 16.6193 10.4354C16.4156 10.1453 16.1818 9.88857 15.9179 9.66536C15.6539 9.44215 15.3673 9.24498 15.058 9.07385C14.7488 8.90272 14.4245 8.77996 14.0851 8.70555C13.7457 8.63115 13.395 8.58651 13.033 8.57163C12.4296 8.57163 11.8526 8.68695 11.302 8.9176C10.7514 9.14826 10.2725 9.48679 9.86522 9.93321C10.0462 10.4168 10.1367 10.9153 10.1367 11.4287C10.1367 12.1132 9.98213 12.7568 9.6729 13.3595C9.36367 13.9622 8.92999 14.4681 8.37186 14.8773C8.86211 15.1229 9.30333 15.4242 9.69552 15.7813C10.0877 16.1385 10.4271 16.5402 10.7137 16.9867C11.0003 17.4331 11.2153 17.9093 11.3586 18.4152C11.5019 18.9212 11.5773 19.4494 11.5849 20H10.1367C10.1367 19.4122 10.0236 18.8579 9.79734 18.3371C9.57108 17.8163 9.26185 17.3624 8.86965 16.9755C8.47746 16.5886 8.01361 16.2798 7.47811 16.0492C6.94261 15.8185 6.38072 15.7069 5.79243 15.7144C5.18905 15.7144 4.62715 15.826 4.10674 16.0492C3.58633 16.2724 3.12625 16.5774 2.72651 16.9643C2.32678 17.3512 2.01377 17.8088 1.78751 18.3371C1.56124 18.8653 1.44811 19.4197 1.44811 20H0C0 19.4569 0.0754222 18.9323 0.226267 18.4264C0.377111 17.9204 0.592064 17.4442 0.871126 16.9978C1.15019 16.5514 1.48582 16.1496 1.87801 15.7925C2.27021 15.4353 2.7152 15.1303 3.21299 14.8773C2.65486 14.4681 2.22118 13.9622 1.91195 13.3595C1.60272 12.7568 1.44811 12.1132 1.44811 11.4287C1.44811 10.8409 1.56124 10.2866 1.78751 9.7658C2.01377 9.24498 2.323 8.79112 2.7152 8.40422C3.10739 8.01732 3.56747 7.70855 4.09543 7.4779C4.62338 7.24725 5.18905 7.13564 5.79243 7.14308C6.43351 7.14308 7.04066 7.27701 7.61387 7.54486C8.18708 7.81271 8.68487 8.18473 9.10723 8.66091C9.30333 8.4749 9.51451 8.3075 9.74078 8.15869C9.96704 8.00988 10.2046 7.86852 10.4535 7.73459C9.89539 7.32537 9.46172 6.81943 9.15248 6.21676C8.84325 5.61409 8.68864 4.9705 8.68864 4.28599C8.68864 3.6982 8.80177 3.1439 9.02804 2.62307C9.2543 2.10225 9.56354 1.64839 9.95573 1.26149C10.3479 0.87459 10.808 0.565815 11.336 0.335164C11.8639 0.104514 12.4296 -0.00709158 13.033 0.000348766C13.6288 0.000348766 14.1907 0.111954 14.7186 0.335164C15.2466 0.558375 15.7067 0.863429 16.0989 1.25033C16.4911 1.63723 16.8041 2.09481 17.0379 2.62307C17.2717 3.15134 17.3848 3.70564 17.3773 4.28599C17.3773 4.9705 17.2227 5.61409 16.9134 6.21676C16.6042 6.81943 16.1705 7.32537 15.6124 7.73459C16.1404 8.00988 16.6155 8.3447 17.0379 8.73904C17.4602 9.13337 17.8185 9.59096 18.1126 10.1118C18.5953 10.1118 19.0479 10.2011 19.4702 10.3796C19.8926 10.5582 20.2659 10.8075 20.5903 11.1274C20.9146 11.4473 21.1635 11.8119 21.3369 12.2211C21.5104 12.6303 21.6009 13.0805 21.6085 13.5715C21.6085 14.1072 21.4916 14.6132 21.2577 15.0894C21.0239 15.5656 20.6883 15.9711 20.2509 16.3059ZM5.79243 14.2858C6.19216 14.2858 6.5655 14.2114 6.91245 14.0626C7.25939 13.9138 7.56862 13.7092 7.84014 13.4488C8.11166 13.1884 8.31907 12.887 8.46237 12.5448C8.60567 12.2025 8.6811 11.8305 8.68864 11.4287C8.68864 11.0344 8.61322 10.6661 8.46237 10.3238C8.31153 9.98157 8.10412 9.67652 7.84014 9.40867C7.57616 9.14081 7.2707 8.9362 6.92376 8.79484C6.57682 8.65347 6.19971 8.57907 5.79243 8.57163C5.39269 8.57163 5.01935 8.64603 4.67241 8.79484C4.32546 8.94365 4.01623 9.14826 3.74471 9.40867C3.47319 9.66908 3.26578 9.97041 3.12248 10.3127C2.97918 10.6549 2.90375 11.0269 2.89621 11.4287C2.89621 11.8231 2.97163 12.1914 3.12248 12.5336C3.27332 12.8759 3.48073 13.1809 3.74471 13.4488C4.00869 13.7166 4.31415 13.9212 4.66109 14.0626C5.00803 14.204 5.38515 14.2784 5.79243 14.2858ZM10.1367 4.28599C10.1367 4.68033 10.2122 5.04862 10.363 5.39088C10.5139 5.73314 10.7213 6.03819 10.9852 6.30604C11.2492 6.57389 11.5547 6.7785 11.9016 6.91987C12.2486 7.06124 12.6257 7.13564 13.033 7.14308C13.4327 7.14308 13.806 7.06868 14.153 6.91987C14.4999 6.77106 14.8091 6.56645 15.0807 6.30604C15.3522 6.04563 15.5596 5.7443 15.7029 5.40204C15.8462 5.05978 15.9216 4.68777 15.9292 4.28599C15.9292 3.89165 15.8537 3.52335 15.7029 3.1811C15.5521 2.83884 15.3446 2.53379 15.0807 2.26593C14.8167 1.99808 14.5112 1.79347 14.1643 1.65211C13.8173 1.51074 13.4402 1.43634 13.033 1.4289C12.6332 1.4289 12.2599 1.5033 11.9129 1.65211C11.566 1.80091 11.2568 2.00552 10.9852 2.26593C10.7137 2.52635 10.5063 2.82768 10.363 3.16994C10.2197 3.51219 10.1443 3.88421 10.1367 4.28599ZM18.1013 11.3171C17.7846 11.3171 17.4904 11.3766 17.2189 11.4957C16.9474 11.6147 16.706 11.7747 16.4948 11.9756C16.2837 12.1765 16.1177 12.4146 15.997 12.6899C15.8764 12.9652 15.816 13.259 15.816 13.5715C15.816 13.884 15.8764 14.1742 15.997 14.4421C16.1177 14.7099 16.2799 14.948 16.4835 15.1563C16.6872 15.3647 16.9285 15.5284 17.2076 15.6474C17.4866 15.7664 17.7846 15.826 18.1013 15.826C18.4181 15.826 18.7122 15.7664 18.9838 15.6474C19.2553 15.5284 19.4966 15.3684 19.7078 15.1675C19.919 14.9666 20.0849 14.7285 20.2056 14.4532C20.3263 14.1779 20.3866 13.884 20.3866 13.5715C20.3866 13.259 20.3263 12.9689 20.2056 12.701C20.0849 12.4332 19.9228 12.1951 19.7191 11.9867C19.5155 11.7784 19.2741 11.6147 18.9951 11.4957C18.716 11.3766 18.4181 11.3171 18.1013 11.3171Z"/>
</mask>
<path d="M20.2509 16.3059C20.99 16.663 21.6009 17.1652 22.0836 17.8125C22.5663 18.4598 22.8718 19.189 23 20H21.7555C21.6726 19.5759 21.518 19.1816 21.2917 18.817C21.0654 18.4524 20.7901 18.1399 20.4658 17.8795C20.1415 17.6191 19.7757 17.4108 19.3684 17.2545C18.9611 17.0983 18.5388 17.0239 18.1013 17.0313C17.6563 17.0313 17.234 17.1057 16.8342 17.2545C16.4345 17.4033 16.0687 17.6079 15.7368 17.8683C15.405 18.1288 15.1297 18.445 14.911 18.817C14.6922 19.189 14.5376 19.5833 14.4471 20H13.2027C13.3233 19.1964 13.625 18.471 14.1077 17.8237C14.5904 17.1764 15.2051 16.6704 15.9518 16.3059C15.5219 15.9711 15.19 15.5656 14.9562 15.0894C14.7224 14.6132 14.6017 14.1072 14.5942 13.5715C14.5942 13.2367 14.6394 12.9131 14.73 12.6006C14.8205 12.2881 14.9562 11.9942 15.1372 11.7189C15.3182 11.4436 15.5332 11.1981 15.7821 10.9823C16.031 10.7665 16.3101 10.5842 16.6193 10.4354C16.4156 10.1453 16.1818 9.88857 15.9179 9.66536C15.6539 9.44215 15.3673 9.24498 15.058 9.07385C14.7488 8.90272 14.4245 8.77996 14.0851 8.70555C13.7457 8.63115 13.395 8.58651 13.033 8.57163C12.4296 8.57163 11.8526 8.68695 11.302 8.9176C10.7514 9.14826 10.2725 9.48679 9.86522 9.93321C10.0462 10.4168 10.1367 10.9153 10.1367 11.4287C10.1367 12.1132 9.98213 12.7568 9.6729 13.3595C9.36367 13.9622 8.92999 14.4681 8.37186 14.8773C8.86211 15.1229 9.30333 15.4242 9.69552 15.7813C10.0877 16.1385 10.4271 16.5402 10.7137 16.9867C11.0003 17.4331 11.2153 17.9093 11.3586 18.4152C11.5019 18.9212 11.5773 19.4494 11.5849 20H10.1367C10.1367 19.4122 10.0236 18.8579 9.79734 18.3371C9.57108 17.8163 9.26185 17.3624 8.86965 16.9755C8.47746 16.5886 8.01361 16.2798 7.47811 16.0492C6.94261 15.8185 6.38072 15.7069 5.79243 15.7144C5.18905 15.7144 4.62715 15.826 4.10674 16.0492C3.58633 16.2724 3.12625 16.5774 2.72651 16.9643C2.32678 17.3512 2.01377 17.8088 1.78751 18.3371C1.56124 18.8653 1.44811 19.4197 1.44811 20H0C0 19.4569 0.0754222 18.9323 0.226267 18.4264C0.377111 17.9204 0.592064 17.4442 0.871126 16.9978C1.15019 16.5514 1.48582 16.1496 1.87801 15.7925C2.27021 15.4353 2.7152 15.1303 3.21299 14.8773C2.65486 14.4681 2.22118 13.9622 1.91195 13.3595C1.60272 12.7568 1.44811 12.1132 1.44811 11.4287C1.44811 10.8409 1.56124 10.2866 1.78751 9.7658C2.01377 9.24498 2.323 8.79112 2.7152 8.40422C3.10739 8.01732 3.56747 7.70855 4.09543 7.4779C4.62338 7.24725 5.18905 7.13564 5.79243 7.14308C6.43351 7.14308 7.04066 7.27701 7.61387 7.54486C8.18708 7.81271 8.68487 8.18473 9.10723 8.66091C9.30333 8.4749 9.51451 8.3075 9.74078 8.15869C9.96704 8.00988 10.2046 7.86852 10.4535 7.73459C9.89539 7.32537 9.46172 6.81943 9.15248 6.21676C8.84325 5.61409 8.68864 4.9705 8.68864 4.28599C8.68864 3.6982 8.80177 3.1439 9.02804 2.62307C9.2543 2.10225 9.56354 1.64839 9.95573 1.26149C10.3479 0.87459 10.808 0.565815 11.336 0.335164C11.8639 0.104514 12.4296 -0.00709158 13.033 0.000348766C13.6288 0.000348766 14.1907 0.111954 14.7186 0.335164C15.2466 0.558375 15.7067 0.863429 16.0989 1.25033C16.4911 1.63723 16.8041 2.09481 17.0379 2.62307C17.2717 3.15134 17.3848 3.70564 17.3773 4.28599C17.3773 4.9705 17.2227 5.61409 16.9134 6.21676C16.6042 6.81943 16.1705 7.32537 15.6124 7.73459C16.1404 8.00988 16.6155 8.3447 17.0379 8.73904C17.4602 9.13337 17.8185 9.59096 18.1126 10.1118C18.5953 10.1118 19.0479 10.2011 19.4702 10.3796C19.8926 10.5582 20.2659 10.8075 20.5903 11.1274C20.9146 11.4473 21.1635 11.8119 21.3369 12.2211C21.5104 12.6303 21.6009 13.0805 21.6085 13.5715C21.6085 14.1072 21.4916 14.6132 21.2577 15.0894C21.0239 15.5656 20.6883 15.9711 20.2509 16.3059ZM5.79243 14.2858C6.19216 14.2858 6.5655 14.2114 6.91245 14.0626C7.25939 13.9138 7.56862 13.7092 7.84014 13.4488C8.11166 13.1884 8.31907 12.887 8.46237 12.5448C8.60567 12.2025 8.6811 11.8305 8.68864 11.4287C8.68864 11.0344 8.61322 10.6661 8.46237 10.3238C8.31153 9.98157 8.10412 9.67652 7.84014 9.40867C7.57616 9.14081 7.2707 8.9362 6.92376 8.79484C6.57682 8.65347 6.19971 8.57907 5.79243 8.57163C5.39269 8.57163 5.01935 8.64603 4.67241 8.79484C4.32546 8.94365 4.01623 9.14826 3.74471 9.40867C3.47319 9.66908 3.26578 9.97041 3.12248 10.3127C2.97918 10.6549 2.90375 11.0269 2.89621 11.4287C2.89621 11.8231 2.97163 12.1914 3.12248 12.5336C3.27332 12.8759 3.48073 13.1809 3.74471 13.4488C4.00869 13.7166 4.31415 13.9212 4.66109 14.0626C5.00803 14.204 5.38515 14.2784 5.79243 14.2858ZM10.1367 4.28599C10.1367 4.68033 10.2122 5.04862 10.363 5.39088C10.5139 5.73314 10.7213 6.03819 10.9852 6.30604C11.2492 6.57389 11.5547 6.7785 11.9016 6.91987C12.2486 7.06124 12.6257 7.13564 13.033 7.14308C13.4327 7.14308 13.806 7.06868 14.153 6.91987C14.4999 6.77106 14.8091 6.56645 15.0807 6.30604C15.3522 6.04563 15.5596 5.7443 15.7029 5.40204C15.8462 5.05978 15.9216 4.68777 15.9292 4.28599C15.9292 3.89165 15.8537 3.52335 15.7029 3.1811C15.5521 2.83884 15.3446 2.53379 15.0807 2.26593C14.8167 1.99808 14.5112 1.79347 14.1643 1.65211C13.8173 1.51074 13.4402 1.43634 13.033 1.4289C12.6332 1.4289 12.2599 1.5033 11.9129 1.65211C11.566 1.80091 11.2568 2.00552 10.9852 2.26593C10.7137 2.52635 10.5063 2.82768 10.363 3.16994C10.2197 3.51219 10.1443 3.88421 10.1367 4.28599ZM18.1013 11.3171C17.7846 11.3171 17.4904 11.3766 17.2189 11.4957C16.9474 11.6147 16.706 11.7747 16.4948 11.9756C16.2837 12.1765 16.1177 12.4146 15.997 12.6899C15.8764 12.9652 15.816 13.259 15.816 13.5715C15.816 13.884 15.8764 14.1742 15.997 14.4421C16.1177 14.7099 16.2799 14.948 16.4835 15.1563C16.6872 15.3647 16.9285 15.5284 17.2076 15.6474C17.4866 15.7664 17.7846 15.826 18.1013 15.826C18.4181 15.826 18.7122 15.7664 18.9838 15.6474C19.2553 15.5284 19.4966 15.3684 19.7078 15.1675C19.919 14.9666 20.0849 14.7285 20.2056 14.4532C20.3263 14.1779 20.3866 13.884 20.3866 13.5715C20.3866 13.259 20.3263 12.9689 20.2056 12.701C20.0849 12.4332 19.9228 12.1951 19.7191 11.9867C19.5155 11.7784 19.2741 11.6147 18.9951 11.4957C18.716 11.3766 18.4181 11.3171 18.1013 11.3171Z" fill="#7A1E43" stroke="#7A1E43" stroke-width="4" mask="url(#path-1-inside-1_38_178)"/>
</svg>
