<svg width="53" height="59" viewBox="0 0 53 59" fill="none" xmlns="http://www.w3.org/2000/svg">
<path fill-rule="evenodd" clip-rule="evenodd" d="M10.0628 37.6036C5.13674 24.0467 14.032 9.21399 27.0882 9.21399H27.7926C37.5569 9.21399 45.4724 18.089 45.4724 29.0368C45.4724 41.2258 36.6594 51.107 25.7881 51.107H8.65039C7.95294 51.107 7.33145 50.6135 7.09997 49.8759C6.86849 49.1382 7.07745 48.3171 7.62124 47.8274L11.9416 43.9372C12.1306 43.7671 12.1974 43.4781 12.106 43.2265L10.0628 37.6036ZM27.0882 12.8996C16.3665 12.8996 9.06175 25.0802 13.107 36.213L15.1502 41.8359C15.7901 43.597 15.3223 45.6201 13.9999 46.8108L13.3218 47.4214H25.7881C34.844 47.4214 42.1852 39.1903 42.1852 29.0368C42.1852 20.1245 35.7414 12.8996 27.7926 12.8996H27.0882Z" fill="white"/>
<ellipse cx="40.5893" cy="14.4533" rx="5.14512" ry="5.20321" fill="#FF7274"/>
</svg>
