<svg xmlns="http://www.w3.org/2000/svg" xmlns:xlink="http://www.w3.org/1999/xlink" width="1800" zoomAndPan="magnify" viewBox="0 0 1350 1349.999938" height="1800" preserveAspectRatio="xMidYMid meet" version="1.0"><defs><clipPath id="a7d414dfad"><path d="M 314 389 L 1055.167969 389 L 1055.167969 1030 L 314 1030 Z M 314 389 " clip-rule="nonzero"/></clipPath></defs><g clip-path="url(#a7d414dfad)"><path fill="#7a1e43" d="M 684.402344 1029.835938 C 681.117188 1029.835938 677.921875 1028.515625 675.597656 1026.191406 L 417.820312 768.414062 C 417.414062 768.007812 417.042969 767.582031 416.707031 767.140625 L 370.941406 721.375 C 295.027344 645.460938 295.027344 521.941406 370.941406 446.027344 C 446.855469 370.117188 570.375 370.117188 646.289062 446.027344 L 684.484375 484.222656 L 722.679688 446.027344 C 798.589844 370.117188 922.113281 370.117188 998.027344 446.027344 C 1034.800781 482.800781 1055.054688 531.695312 1055.054688 583.703125 C 1055.054688 635.707031 1034.800781 684.601562 998.027344 721.375 L 952.25 767.148438 C 951.917969 767.589844 951.550781 768.011719 951.152344 768.414062 L 693.371094 1026.191406 C 691.285156 1028.277344 688.503906 1029.539062 685.578125 1029.777344 C 685.222656 1029.8125 684.867188 1029.832031 684.511719 1029.835938 C 684.476562 1029.835938 684.441406 1029.835938 684.402344 1029.835938 Z M 675.761719 1026.191406 C 677.210938 1027.640625 678.9375 1028.652344 680.769531 1029.230469 C 678.894531 1028.632812 677.167969 1027.601562 675.761719 1026.191406 Z M 693.203125 1026.191406 C 692.3125 1027.078125 691.296875 1027.820312 690.195312 1028.398438 C 691.28125 1027.835938 692.292969 1027.097656 693.203125 1026.191406 Z M 436.539062 752.085938 L 684.484375 1000.03125 L 932.445312 752.070312 C 932.777344 751.628906 933.144531 751.207031 933.546875 750.804688 L 980.503906 703.851562 C 1012.597656 671.757812 1030.269531 629.089844 1030.269531 583.699219 C 1030.269531 538.3125 1012.597656 495.644531 980.503906 463.550781 C 914.253906 397.300781 806.453125 397.300781 740.203125 463.550781 L 693.246094 510.507812 C 690.925781 512.832031 687.773438 514.136719 684.484375 514.136719 C 681.199219 514.136719 678.046875 512.832031 675.722656 510.507812 L 628.769531 463.550781 C 562.515625 397.300781 454.71875 397.300781 388.46875 463.550781 C 322.21875 529.804688 322.21875 637.601562 388.46875 703.851562 L 435.425781 750.808594 C 435.828125 751.214844 436.199219 751.640625 436.539062 752.085938 Z M 436.539062 752.085938 " fill-opacity="1" fill-rule="nonzero"/></g></svg>