<svg width="10" height="22" viewBox="0 0 10 22" fill="none" xmlns="http://www.w3.org/2000/svg">
<path d="M8.75 5.75V1.35C8.75 1.19087 8.68679 1.03826 8.57426 0.925736C8.46174 0.813214 8.30913 0.75 8.15 0.75H1.35C1.19087 0.75 1.03826 0.813214 0.925735 0.925736C0.813214 1.03826 0.75 1.19087 0.75 1.35V20.15C0.75 20.3091 0.813214 20.4617 0.925735 20.5743C1.03826 20.6868 1.19087 20.75 1.35 20.75H8.15C8.30913 20.75 8.46174 20.6868 8.57426 20.5743C8.68679 20.4617 8.75 20.3091 8.75 20.15V15.75M8.75 5.75H5.75M8.75 5.75V10.75M8.75 15.75V10.75M8.75 15.75H5.75M8.75 10.75H5.75" stroke="#7A1E43" stroke-width="1.5" stroke-linecap="round" stroke-linejoin="round"/>
</svg>
