<svg width="58" height="58" viewBox="0 0 58 58" fill="none" xmlns="http://www.w3.org/2000/svg">
<circle cx="29" cy="29" r="29" fill="#D9D9D9"/>
<circle cx="29" cy="29" r="29" fill="#7A1E43"/>
<path fill-rule="evenodd" clip-rule="evenodd" d="M42.452 13.496C46.7917 16.0252 49.845 21.1602 49.7103 27.1508C49.5425 34.6287 43.7239 41.2241 33.8038 47.1152C32.3331 47.9894 30.7837 49.1224 29.0002 49.1224C27.2498 49.1224 25.6341 47.9687 24.1945 47.1132C14.2785 41.2241 8.4578 34.6266 8.29002 27.1508C8.15538 21.1602 11.2087 16.0272 15.5483 13.496C19.6083 11.1325 24.7082 11.118 29.0002 14.6083C33.2922 11.118 38.392 11.1304 42.452 13.496ZM40.3661 17.0775C37.4785 15.3955 33.8701 15.4555 30.7464 18.6165C30.5174 18.8464 30.2452 19.0288 29.9456 19.1532C29.6459 19.2776 29.3246 19.3417 29.0002 19.3417C28.6757 19.3417 28.3544 19.2776 28.0548 19.1532C27.7551 19.0288 27.483 18.8464 27.2539 18.6165C24.1302 15.4555 20.5218 15.3955 17.6342 17.0775C14.6431 18.8216 12.3314 22.5212 12.4329 27.0617C12.5489 32.2631 16.6586 37.8207 26.3114 43.5544C27.1566 44.0578 28.039 44.702 29.0002 44.9692C29.9613 44.702 30.8437 44.0578 31.6889 43.5544C41.3417 37.8207 45.4514 32.2652 45.5674 27.0597C45.671 22.5232 43.3572 18.8216 40.3661 17.0775Z" fill="white"/>
</svg>
