<svg width="42" height="40" viewBox="0 0 42 40" fill="none" xmlns="http://www.w3.org/2000/svg">
<path fill-rule="evenodd" clip-rule="evenodd" d="M0 13.1856C0 5.73601 5.68594 0 12.36 0C15.8003 0 18.8276 1.85418 21 4.25333C23.1724 1.85418 26.1997 0 29.64 0C36.3141 0 42 5.73601 42 13.1856C42 18.2887 40.1067 22.7764 37.4836 26.5698C34.8651 30.3566 31.4399 33.5705 28.1603 36.182C26.9077 37.1795 25.6404 38.0996 24.4806 38.7785C23.3916 39.416 22.1394 40 21 40C19.8606 40 18.6084 39.416 17.5194 38.7785C16.3596 38.0996 15.0923 37.1795 13.8397 36.182C10.5601 33.5705 7.13489 30.3566 4.51637 26.5698C1.89331 22.7764 0 18.2887 0 13.1856ZM12.36 4.13793C7.3698 4.13793 3.6 8.35614 3.6 13.1856C3.6 17.0574 5.02989 20.6621 7.33462 23.9951C9.64388 27.3347 12.751 30.2812 15.8898 32.7806C17.0775 33.7263 18.1962 34.5311 19.1531 35.0912C20.1808 35.6928 20.776 35.8621 21 35.8621C21.224 35.8621 21.8192 35.6928 22.8469 35.0912C23.8038 34.5311 24.9225 33.7263 26.1102 32.7806C29.249 30.2812 32.3561 27.3347 34.6654 23.9951C36.9701 20.6621 38.4 17.0574 38.4 13.1856C38.4 8.35614 34.6302 4.13793 29.64 4.13793C26.774 4.13793 24.0979 6.10599 22.427 8.60392C22.0862 9.11327 21.559 9.41177 21 9.41177C20.441 9.41177 19.9138 9.11327 19.573 8.60392C17.9021 6.10599 15.226 4.13793 12.36 4.13793Z" fill="white"/>
</svg>
