<svg width="19" height="19" viewBox="0 0 19 19" fill="none" xmlns="http://www.w3.org/2000/svg">
<path d="M8.40595 16.9001H7.21425C4.167 16.9001 2.6438 16.9001 1.6969 15.9353C0.75 14.9706 0.75 13.4185 0.75 10.3126C0.75 7.20755 0.75 5.6546 1.6969 4.68985C2.6438 3.7251 4.167 3.7251 7.21425 3.7251H10.4468C13.494 3.7251 15.0181 3.7251 15.965 4.68985C16.6934 5.4319 16.8609 6.52245 16.9 8.4001" stroke="#7A1E43" stroke-width="1.5" stroke-linecap="round"/>
<path d="M16.0645 16.0693L17.75 17.7498M16.9451 13.9469C16.9518 13.549 16.8792 13.1537 16.7315 12.7842C16.5839 12.4146 16.3642 12.0782 16.0852 11.7944C15.8062 11.5107 15.4735 11.2853 15.1064 11.1315C14.7394 10.9777 14.3455 10.8984 13.9475 10.8984C13.5496 10.8984 13.1556 10.9777 12.7886 11.1315C12.4216 11.2853 12.0889 11.5107 11.8099 11.7944C11.5309 12.0782 11.3112 12.4146 11.1635 12.7842C11.0159 13.1537 10.9433 13.549 10.95 13.9469C10.9633 14.7331 11.2849 15.4827 11.8456 16.034C12.4063 16.5854 13.1612 16.8943 13.9475 16.8943C14.7339 16.8943 15.4888 16.5854 16.0495 16.034C16.6102 15.4827 16.9318 14.7331 16.9451 13.9469Z" stroke="#7A1E43" stroke-width="1.5" stroke-linecap="round" stroke-linejoin="round"/>
<path d="M12.65 3.725L12.565 3.4615C12.1442 2.1525 11.9343 1.498 11.4337 1.124C10.9322 0.75 10.2675 0.75 8.9355 0.75H8.71195C7.3817 0.75 6.71615 0.75 6.2155 1.124C5.714 1.498 5.50405 2.1525 5.0833 3.4615L5 3.725" stroke="#7A1E43" stroke-width="1.5"/>
</svg>
