<svg width="58" height="58" viewBox="0 0 58 58" fill="none" xmlns="http://www.w3.org/2000/svg">
<circle cx="29" cy="29" r="29" fill="white"/>
<path d="M18.1237 14.3395L28.7847 25.0004L39.3904 14.3947C39.6247 14.1454 39.9069 13.9459 40.2201 13.8082C40.5333 13.6706 40.8711 13.5977 41.2132 13.5938C41.9458 13.5938 42.6483 13.8847 43.1662 14.4027C43.6842 14.9207 43.9752 15.6232 43.9752 16.3557C43.9816 16.6943 43.9188 17.0306 43.7905 17.3441C43.6623 17.6576 43.4714 17.9415 43.2294 18.1785L32.4856 28.7842L43.2294 39.528C43.6846 39.9734 43.9516 40.5764 43.9752 41.2128C43.9752 41.9453 43.6842 42.6478 43.1662 43.1658C42.6483 43.6837 41.9458 43.9747 41.2132 43.9747C40.8613 43.9893 40.5101 43.9306 40.182 43.8022C39.8539 43.6738 39.5561 43.4786 39.3075 43.229L28.7847 32.568L18.1513 43.2014C17.918 43.4424 17.6392 43.6348 17.3311 43.7676C17.0229 43.9003 16.6916 43.9707 16.3561 43.9747C15.6236 43.9747 14.9211 43.6837 14.4031 43.1658C13.8852 42.6478 13.5942 41.9453 13.5942 41.2128C13.5878 40.8742 13.6506 40.5378 13.7788 40.2244C13.9071 39.9109 14.098 39.627 14.3399 39.3899L25.0837 28.7842L14.3399 18.0404C13.8847 17.5951 13.6178 16.992 13.5942 16.3557C13.5942 15.6232 13.8852 14.9207 14.4031 14.4027C14.9211 13.8847 15.6236 13.5938 16.3561 13.5938C17.019 13.602 17.6542 13.8699 18.1237 14.3395Z" fill="#7A1E43"/>
</svg>
