<svg width="58" height="62" viewBox="0 0 58 62" fill="none" xmlns="http://www.w3.org/2000/svg">
<circle cx="29" cy="29" r="29" fill="url(#paint0_linear_121_91)"/>
<g filter="url(#filter0_d_121_91)">
<path fill-rule="evenodd" clip-rule="evenodd" d="M29.2969 18.2791C33.7096 14.6707 38.9528 14.6835 43.127 17.1277C47.5887 19.7409 50.7278 25.0465 50.5894 31.2361C50.4211 38.7697 44.7285 45.4344 34.9938 51.4056L33.4583 52.328C33.0302 52.5827 32.5553 52.8545 32.091 53.09C31.2285 53.5309 30.2808 53.9375 29.2969 53.9375C28.313 53.9375 27.3653 53.5309 26.5006 53.09C26.1892 52.93 25.8817 52.7623 25.5785 52.587L24.3582 51.8636C14.1613 45.7768 8.17694 38.9602 8.00443 31.2361C7.86601 25.0465 11.0051 19.7431 15.4668 17.1277C19.641 14.6857 24.8842 14.6686 29.2969 18.2791ZM17.6114 20.8281C14.5361 22.6302 12.1594 26.4548 12.2638 31.1441C12.383 36.5182 16.6083 42.2604 26.5326 48.1867C27.1758 48.5698 27.8189 48.9636 28.4301 49.2761C29.1457 49.6399 29.4481 49.6399 30.1637 49.2761C30.5705 49.0685 30.9943 48.8224 31.4202 48.5698L32.0612 48.1846C37.0681 45.1968 40.6225 42.2561 42.9353 39.3818C40.5754 39.3422 38.3233 38.3821 36.6549 36.7044L34.1206 34.1575L32.4978 35.7884C30.8827 37.4114 28.6921 38.3233 26.408 38.3233C24.1239 38.3233 21.9333 37.4114 20.3182 35.7884C19.7592 35.2267 19.3158 34.5599 19.0132 33.826C18.7107 33.0921 18.555 32.3055 18.555 31.5111C18.555 30.7167 18.7107 29.9301 19.0132 29.1962C19.3158 28.4623 19.7592 27.7955 20.3182 27.2339L26.2195 21.299C23.3317 19.1673 20.1926 19.3193 17.6114 20.8281ZM31.45 22.0695L31.0432 22.4676C30.9758 22.5605 30.901 22.6478 30.8196 22.7287L23.3296 30.2623C22.9998 30.5938 22.8145 31.0434 22.8145 31.5122C22.8145 31.981 22.9998 32.4305 23.3296 32.7621C24.1459 33.582 25.2528 34.0427 26.4069 34.0427C27.5611 34.0427 28.668 33.582 29.4843 32.7621L31.3286 30.9086C31.6953 30.5402 32.1305 30.2479 32.6096 30.0484C33.0886 29.849 33.6021 29.7464 34.1206 29.7464C34.6391 29.7464 35.1526 29.849 35.6316 30.0484C36.1107 30.2479 36.546 30.5402 36.9126 30.9086L39.6663 33.6781C40.4612 34.477 41.5078 34.9732 42.6268 35.0817C43.7458 35.1903 44.8675 34.9044 45.7997 34.2731C46.1334 33.2172 46.3109 32.1735 46.3322 31.1419C46.4365 26.4548 44.0577 22.6302 40.9824 20.8303C38.1244 19.1566 34.5785 19.1523 31.45 22.0695Z" fill="white"/>
<path fill-rule="evenodd" clip-rule="evenodd" d="M22.7421 10.6275C24.2113 9.1533 26.4121 8.31028 29.3 8.31028C32.19 8.31028 34.3886 9.1533 35.8578 10.6275C37.0594 11.8302 37.911 13.5913 38.1745 16.0343L41.3891 16.5705C41.191 13.0925 40.0569 10.2523 38.0438 8.23525C35.8304 6.01736 32.7612 5 29.3 5C25.8387 5 22.7695 6.01736 20.5561 8.23304C18.543 10.2501 17.409 13.0881 17.2108 16.5683L20.5561 16.0333C20.5125 16.0334 20.469 16.0337 20.4255 16.0343C20.6889 13.5913 21.5406 11.8302 22.7421 10.6275Z" fill="white"/>
</g>
<defs>
<filter id="filter0_d_121_91" x="4.00003" y="5" width="50.5938" height="56.9375" filterUnits="userSpaceOnUse" color-interpolation-filters="sRGB">
<feFlood flood-opacity="0" result="BackgroundImageFix"/>
<feColorMatrix in="SourceAlpha" type="matrix" values="0 0 0 0 0 0 0 0 0 0 0 0 0 0 0 0 0 0 127 0" result="hardAlpha"/>
<feOffset dy="4"/>
<feGaussianBlur stdDeviation="2"/>
<feComposite in2="hardAlpha" operator="out"/>
<feColorMatrix type="matrix" values="0 0 0 0 0 0 0 0 0 0 0 0 0 0 0 0 0 0 0.25 0"/>
<feBlend mode="normal" in2="BackgroundImageFix" result="effect1_dropShadow_121_91"/>
<feBlend mode="normal" in="SourceGraphic" in2="effect1_dropShadow_121_91" result="shape"/>
</filter>
<linearGradient id="paint0_linear_121_91" x1="29" y1="0" x2="29" y2="58" gradientUnits="userSpaceOnUse">
<stop stop-color="#731E7A"/>
<stop offset="1" stop-color="#FF7274"/>
</linearGradient>
</defs>
</svg>
