<svg width="35" height="42" viewBox="0 0 35 42" fill="none" xmlns="http://www.w3.org/2000/svg">
<path d="M12.8532 14.3234C12.8532 11.8651 14.9337 9.87226 17.5 9.87226C20.0663 9.87226 22.1467 11.8651 22.1467 14.3234C22.1467 16.7816 20.0663 18.7745 17.5 18.7745C14.9337 18.7745 12.8532 16.7816 12.8532 14.3234Z" fill="white"/>
<path d="M15.1766 22.1128C11.3271 22.1128 8.20651 25.102 8.20651 28.7894C8.20651 30.0186 9.24672 31.015 10.5299 31.015H24.4701C25.7532 31.015 26.7934 30.0186 26.7934 28.7894C26.7934 25.102 23.6728 22.1128 19.8233 22.1128H15.1766Z" fill="white"/>
<path fill-rule="evenodd" clip-rule="evenodd" d="M7.14596 0.708963C14.0134 -0.236321 20.9866 -0.236321 27.854 0.708963C31.2589 1.17764 33.8822 3.82468 34.1938 7.10615L34.4888 10.2124C35.1704 17.3893 35.1704 24.6107 34.4888 31.7876L34.1938 34.8938C33.8822 38.1753 31.2589 40.8224 27.854 41.291C20.9866 42.2363 14.0134 42.2363 7.14596 41.291C3.74109 40.8224 1.11779 38.1753 0.806165 34.8939L0.511173 31.7876C-0.170391 24.6107 -0.170391 17.3893 0.511173 10.2124L0.806164 7.10616C1.11779 3.82468 3.74109 1.17764 7.14596 0.708963ZM27.3583 4.01334C20.8197 3.11332 14.1803 3.11332 7.64167 4.01334C5.83457 4.26209 4.44228 5.66698 4.27688 7.40859L3.98189 10.5149C3.31944 17.4906 3.31944 24.5095 3.98189 31.4851L4.27688 34.5914C4.44228 36.333 5.83456 37.7379 7.64166 37.9867C14.1803 38.8867 20.8197 38.8867 27.3583 37.9867C29.1654 37.7379 30.5577 36.333 30.7231 34.5914L31.0181 31.4851C31.6806 24.5094 31.6806 17.4905 31.0181 10.5149L30.7231 7.40858C30.5577 5.66698 29.1654 4.26209 27.3583 4.01334Z" fill="white"/>
</svg>
