<svg width="7" height="8" viewBox="0 0 7 8" fill="none" xmlns="http://www.w3.org/2000/svg">
<path fill-rule="evenodd" clip-rule="evenodd" d="M3.5 2.17079C4.2252 1.58091 5.08689 1.58301 5.77288 1.98256C6.50613 2.40975 7.02203 3.27708 6.99928 4.28891C6.97163 5.52046 6.03608 6.60996 4.43624 7.5861L4.1839 7.7369C4.11355 7.77853 4.0355 7.82296 3.9592 7.86145C3.81745 7.93352 3.6617 8 3.5 8C3.3383 8 3.18255 7.93352 3.04045 7.86145C2.98927 7.83529 2.93874 7.80788 2.8889 7.77923L2.68836 7.66097C1.01257 6.66594 0.0290735 5.5516 0.000723688 4.28891C-0.0220262 3.27708 0.49387 2.4101 1.22712 1.98256C1.91311 1.58336 2.77481 1.58056 3.5 2.17079ZM1.57956 2.58749C1.07417 2.88208 0.683569 3.5073 0.700719 4.27387C0.720319 5.1524 1.41471 6.0911 3.0457 7.0599C3.1514 7.12252 3.2571 7.1869 3.35755 7.23798C3.47515 7.29746 3.52485 7.29746 3.64245 7.23798C3.7093 7.20404 3.77895 7.16381 3.84895 7.12252L3.9543 7.05955C4.77714 6.57112 5.36129 6.0904 5.74138 5.62052C5.35355 5.61405 4.98343 5.4571 4.70924 5.18283L4.29274 4.76649L4.02605 5.03309C3.76061 5.29842 3.40061 5.44748 3.02523 5.44748C2.64985 5.44748 2.28985 5.29842 2.02441 5.03309C1.93254 4.94127 1.85967 4.83227 1.80995 4.71229C1.76023 4.59232 1.73464 4.46373 1.73464 4.33387C1.73464 4.20401 1.76023 4.07542 1.80995 3.95545C1.85967 3.83548 1.93254 3.72647 2.02441 3.63465L2.99425 2.66446C2.51966 2.31599 2.00376 2.34083 1.57956 2.58749ZM3.85385 2.79041L3.787 2.85549C3.77592 2.87068 3.76363 2.88496 3.75025 2.89817L2.51931 4.12972C2.46511 4.18392 2.43466 4.25741 2.43466 4.33405C2.43466 4.41068 2.46511 4.48418 2.51931 4.53837C2.65346 4.67242 2.83537 4.74772 3.02505 4.74772C3.21473 4.74772 3.39665 4.67242 3.5308 4.53837L3.8339 4.23538C3.89415 4.17515 3.96569 4.12736 4.04442 4.09476C4.12315 4.06216 4.20753 4.04539 4.29274 4.04539C4.37796 4.04539 4.46234 4.06216 4.54107 4.09476C4.6198 4.12736 4.69134 4.17515 4.75159 4.23538L5.20414 4.68812C5.33478 4.81871 5.50678 4.89983 5.69067 4.91757C5.87457 4.93532 6.05892 4.88859 6.21213 4.78538C6.26697 4.61278 6.29613 4.44216 6.29963 4.27352C6.31678 3.5073 5.92583 2.88208 5.42044 2.58784C4.95074 2.31424 4.36799 2.31354 3.85385 2.79041Z" fill="white"/>
<path fill-rule="evenodd" clip-rule="evenodd" d="M2.42276 0.919946C2.66422 0.678956 3.02589 0.541145 3.5005 0.541145C3.97546 0.541145 4.33678 0.678956 4.57824 0.919946C4.77571 1.11656 4.91567 1.40445 4.95897 1.80382L5.48727 1.89148C5.45471 1.32292 5.26833 0.858617 4.93749 0.528879C4.57374 0.166312 4.06934 0 3.5005 0C2.93167 0 2.42726 0.166312 2.06351 0.528518C1.73267 0.858256 1.5463 1.3222 1.51373 1.89112L2.06351 1.80365C2.05635 1.80366 2.04919 1.80372 2.04204 1.80382C2.08534 1.40445 2.2253 1.11656 2.42276 0.919946Z" fill="white"/>
</svg>
