<svg width="18" height="15" viewBox="0 0 18 15" fill="none" xmlns="http://www.w3.org/2000/svg">
<path d="M7.5 0C9.98438 0 12 2.01562 12 4.5V6.5375C12.5875 6.19688 13.2719 6 14 6C16.2094 6 18 7.79063 18 10C18 12.2094 16.2094 14 14 14C12.8813 14 11.8688 13.5406 11.1438 12.8C10.2438 14.1281 8.725 15 7 15C6.44688 15 6 14.5531 6 14C6 13.4469 6.44688 13 7 13C8.65625 13 10 11.6562 10 10V4.5C10 3.11875 8.88125 2 7.5 2C6.11875 2 5 3.11875 5 4.5V11C5 11.5531 4.55312 12 4 12C3.44688 12 3 11.5531 3 11V4C3 2.89687 2.10313 2 1 2C0.446875 2 0 1.55313 0 1C0 0.446875 0.446875 0 1 0C2.26875 0 3.4 0.59375 4.13125 1.51562C4.95625 0.584375 6.15938 0 7.5 0ZM14 8C12.8969 8 12 8.89688 12 10C12 11.1031 12.8969 12 14 12C15.1031 12 16 11.1031 16 10C16 8.89688 15.1031 8 14 8Z" fill="#7A1E43"/>
</svg>
