<svg width="21" height="21" viewBox="0 0 21 21" fill="none" xmlns="http://www.w3.org/2000/svg">
<circle cx="10.5" cy="10.5" r="10" fill="white" stroke="white"/>
<path d="M16.0714 11.4286H11.4286V16.0714C11.4286 16.3177 11.3307 16.5539 11.1566 16.728C10.9825 16.9022 10.7463 17 10.5 17C10.2537 17 10.0175 16.9022 9.8434 16.728C9.66926 16.5539 9.57143 16.3177 9.57143 16.0714V11.4286H4.92857C4.6823 11.4286 4.44611 11.3307 4.27197 11.1566C4.09783 10.9825 4 10.7463 4 10.5C4 10.2537 4.09783 10.0175 4.27197 9.8434C4.44611 9.66926 4.6823 9.57143 4.92857 9.57143H9.57143V4.92857C9.57143 4.6823 9.66926 4.44611 9.8434 4.27197C10.0175 4.09783 10.2537 4 10.5 4C10.7463 4 10.9825 4.09783 11.1566 4.27197C11.3307 4.44611 11.4286 4.6823 11.4286 4.92857V9.57143H16.0714C16.3177 9.57143 16.5539 9.66926 16.728 9.8434C16.9022 10.0175 17 10.2537 17 10.5C17 10.7463 16.9022 10.9825 16.728 11.1566C16.5539 11.3307 16.3177 11.4286 16.0714 11.4286Z" fill="#261A2D"/>
</svg>
