<svg width="18" height="18" viewBox="0 0 18 18" fill="none" xmlns="http://www.w3.org/2000/svg">
<path d="M8.80559e-05 6.73876C-0.00223934 6.89066 0.0416184 7.03968 0.125855 7.1661C0.210093 7.29252 0.330737 7.39037 0.471818 7.44672L7.67226 10.3273L10.5529 17.5283C10.6085 17.6676 10.7047 17.787 10.8289 17.871C10.9531 17.9551 11.0996 18.0001 11.2496 18H11.2616C11.4135 17.9976 11.5611 17.9491 11.6848 17.861C11.8086 17.7729 11.9026 17.6493 11.9546 17.5065L17.9543 1.00765C18.0034 0.873429 18.0132 0.727969 17.9824 0.588399C17.9516 0.44883 17.8816 0.320965 17.7805 0.219862C17.6795 0.11876 17.5517 0.0486301 17.4122 0.0177331C17.2726 -0.0131638 17.1271 -0.0035416 16.9929 0.0454664L0.493567 6.04506C0.350689 6.09704 0.226984 6.19122 0.138854 6.31511C0.0507229 6.43899 0.00232905 6.58674 8.80559e-05 6.73876Z" fill="white"/>
</svg>
