<svg width="28" height="24" viewBox="0 0 28 24" fill="none" xmlns="http://www.w3.org/2000/svg">
<path fill-rule="evenodd" clip-rule="evenodd" d="M22 9.00434C22.7957 9.00434 23.5587 8.68812 24.1213 8.12524C24.6839 7.56236 25 6.79893 25 6.0029C25 5.20686 24.6839 4.44343 24.1213 3.88055C23.5587 3.31767 22.7957 3.00145 22 3.00145C21.2044 3.00145 20.4413 3.31767 19.8787 3.88055C19.3161 4.44343 19 5.20686 19 6.0029C19 6.79893 19.3161 7.56236 19.8787 8.12524C20.4413 8.68812 21.2044 9.00434 22 9.00434ZM22 12.0058C23.1222 12.0057 24.2218 11.6907 25.1741 11.0967C26.1263 10.5027 26.893 9.65337 27.3869 8.64528C27.8809 7.63718 28.0824 6.51068 27.9685 5.39376C27.8546 4.27683 27.43 3.21424 26.7427 2.32668C26.0555 1.43912 25.1333 0.762172 24.0808 0.372723C23.0282 -0.0167261 21.8877 -0.103063 20.7886 0.123519C19.6895 0.350101 18.6759 0.88052 17.8631 1.65453C17.0502 2.42853 16.4705 3.4151 16.19 4.50217H1.5C1.10218 4.50217 0.720645 4.66028 0.43934 4.94172C0.158036 5.22316 3.45818e-07 5.60488 3.45818e-07 6.0029C3.45818e-07 6.40091 0.158036 6.78263 0.43934 7.06407C0.720645 7.34551 1.10218 7.50362 1.5 7.50362H16.19C16.5226 8.79226 17.2737 9.9338 18.3254 10.7488C19.3771 11.5637 20.6697 12.0059 22 12.0058ZM9 18.0087C9 18.8047 8.68393 19.5682 8.12132 20.131C7.55871 20.6939 6.79565 21.0101 6 21.0101C5.20435 21.0101 4.44129 20.6939 3.87868 20.131C3.31607 19.5682 3 18.8047 3 18.0087C3 17.2127 3.31607 16.4492 3.87868 15.8863C4.44129 15.3235 5.20435 15.0072 6 15.0072C6.79565 15.0072 7.55871 15.3235 8.12132 15.8863C8.68393 16.4492 9 17.2127 9 18.0087ZM11.81 19.5094C11.4422 20.9215 10.573 22.1512 9.36499 22.9688C8.15693 23.7864 6.69263 24.136 5.24574 23.9521C3.79885 23.7683 2.46839 23.0636 1.50298 21.9698C0.53758 20.876 0.0033033 19.4679 3.45818e-07 18.0087C-0.000495337 16.5473 0.531894 15.1359 1.49733 14.0391C2.46277 12.9424 3.79493 12.2357 5.24401 12.0516C6.69308 11.8675 8.15953 12.2185 9.36835 13.039C10.5772 13.8594 11.4453 15.0928 11.81 16.508H26.5C26.8978 16.508 27.2794 16.6661 27.5607 16.9475C27.842 17.229 28 17.6107 28 18.0087C28 18.4067 27.842 18.7884 27.5607 19.0699C27.2794 19.3513 26.8978 19.5094 26.5 19.5094H11.81Z" fill="white"/>
</svg>
