<svg width="27" height="28" viewBox="0 0 27 28" fill="none" xmlns="http://www.w3.org/2000/svg">
<path fill-rule="evenodd" clip-rule="evenodd" d="M14.7321 0.398304C13.7813 -0.127101 12.493 -0.135208 11.5347 0.388843C7.86132 2.39756 4.52951 4.7007 1.60979 7.25522C1.15829 7.65024 0.837866 8.22427 0.843333 8.89994C0.848778 9.57284 1.17572 10.1392 1.62448 10.5277C4.51994 13.0345 7.8545 15.3397 11.4606 17.3325C12.4114 17.8579 13.6997 17.866 14.658 17.342C18.3314 15.3333 21.6632 13.0301 24.5829 10.4756C25.0344 10.0806 25.3548 9.50654 25.3494 8.83087C25.3439 8.15797 25.017 7.59162 24.5682 7.2031C21.6728 4.69634 18.3382 2.39111 14.7321 0.398304ZM12.5098 2.38798C12.8493 2.20231 13.407 2.20407 13.7489 2.39297C17.1904 4.29485 20.3615 6.4829 23.1087 8.84625C20.3451 11.2476 17.1835 13.4286 13.6829 15.3428C13.3434 15.5285 12.7857 15.5267 12.4438 15.3378C9.00227 13.436 5.83119 11.2479 3.08396 8.88456C5.8476 6.48318 9.00924 4.30219 12.5098 2.38798Z" fill="white"/>
<path d="M26.1255 14.405C26.4362 14.932 26.2846 15.626 25.7869 15.955L17.135 21.6744C15.9609 22.4505 14.5043 22.8093 13.0962 22.8094C11.6881 22.8095 10.2315 22.4508 9.05724 21.6749L0.500105 16.0203C0.00229525 15.6913 -0.149402 14.9973 0.161279 14.4702C0.47196 13.9432 1.12737 13.7825 1.62518 14.1115L10.1823 19.7661C10.9532 20.2755 12.0004 20.5594 13.0961 20.5594C14.1918 20.5593 15.2389 20.2752 16.0096 19.7658L24.6615 14.0464C25.1593 13.7174 25.8147 13.8779 26.1255 14.405Z" fill="white"/>
<path d="M26.1254 20.0369C26.4362 20.5639 26.2847 21.2579 25.787 21.587L18.2944 26.5413C16.7961 27.532 14.9218 27.9982 13.0962 27.9983C11.2705 27.9984 9.39616 27.5325 7.89764 26.542L0.499996 21.6523C0.00222415 21.3233 -0.149395 20.6293 0.161346 20.1022C0.472087 19.5752 1.12752 19.4146 1.62529 19.7436L9.02293 24.6334C10.118 25.3572 11.5828 25.7484 13.096 25.7483C14.6093 25.7482 16.0739 25.3569 17.1688 24.6329L24.6614 19.6786C25.1591 19.3495 25.8146 19.5099 26.1254 20.0369Z" fill="white"/>
</svg>
