<svg width="51" height="34" viewBox="0 0 51 34" fill="none" xmlns="http://www.w3.org/2000/svg">
<path d="M2.83334 34C2.03056 34 1.35812 33.728 0.81601 33.184C0.273899 32.64 0.00189866 31.9675 9.7701e-06 31.1666C-0.00187912 30.3657 0.270121 29.6933 0.81601 29.1493C1.3619 28.6053 2.03434 28.3333 2.83334 28.3333H48.1667C48.9694 28.3333 49.6428 28.6053 50.1868 29.1493C50.7308 29.6933 51.0019 30.3657 51 31.1666C50.9981 31.9675 50.7261 32.6409 50.184 33.1868C49.6419 33.7327 48.9694 34.0037 48.1667 34H2.83334ZM2.83334 19.8333C2.03056 19.8333 1.35812 19.5613 0.81601 19.0173C0.273899 18.4733 0.00189866 17.8009 9.7701e-06 17C-0.00187912 16.1991 0.270121 15.5266 0.81601 14.9826C1.3619 14.4386 2.03434 14.1666 2.83334 14.1666H48.1667C48.9694 14.1666 49.6428 14.4386 50.1868 14.9826C50.7308 15.5266 51.0019 16.1991 51 17C50.9981 17.8009 50.7261 18.4743 50.184 19.0201C49.6419 19.566 48.9694 19.8371 48.1667 19.8333H2.83334ZM2.83334 5.66666C2.03056 5.66666 1.35812 5.39466 0.81601 4.85066C0.273899 4.30666 0.00189866 3.63422 9.7701e-06 2.83333C-0.00187912 2.03244 0.270121 1.36 0.81601 0.815999C1.3619 0.272 2.03434 0 2.83334 0H48.1667C48.9694 0 49.6428 0.272 50.1868 0.815999C50.7308 1.36 51.0019 2.03244 51 2.83333C50.9981 3.63422 50.7261 4.30761 50.184 4.85349C49.6419 5.39938 48.9694 5.67044 48.1667 5.66666H2.83334Z" fill="white"/>
</svg>
