<svg width="27" height="31" viewBox="0 0 27 31" fill="none" xmlns="http://www.w3.org/2000/svg">
<path d="M13.5 15.5C15.5886 15.5 17.5916 14.6835 19.0685 13.2301C20.5453 11.7767 21.375 9.80543 21.375 7.75C21.375 5.69457 20.5453 3.72333 19.0685 2.26992C17.5916 0.816515 15.5886 0 13.5 0C11.4114 0 9.40838 0.816515 7.93153 2.26992C6.45469 3.72333 5.625 5.69457 5.625 7.75C5.625 9.80543 6.45469 11.7767 7.93153 13.2301C9.40838 14.6835 11.4114 15.5 13.5 15.5ZM3.9375 17.7143C2.89321 17.7143 1.89169 18.1225 1.15327 18.8492C0.414843 19.5759 0 20.5616 0 21.5893V22.1429C0 24.7922 1.71338 27.0331 4.14562 28.5565C6.59137 30.0888 9.90225 31 13.5 31C17.0977 31 20.4075 30.0888 22.8544 28.5565C25.2866 27.0331 27 24.7922 27 22.1429V21.5893C27 20.5616 26.5852 19.5759 25.8467 18.8492C25.1083 18.1225 24.1068 17.7143 23.0625 17.7143H3.9375Z" fill="white"/>
<circle cx="23" cy="27" r="3.5" fill="#75C26B" stroke="#261A2D"/>
</svg>
