<svg width="36" height="43" viewBox="0 0 36 43" fill="none" xmlns="http://www.w3.org/2000/svg">
<path fill-rule="evenodd" clip-rule="evenodd" d="M9.29032 15.6892C9.29032 10.8754 13.1898 6.97297 18 6.97297C22.8102 6.97297 26.7097 10.8754 26.7097 15.6892C26.7097 20.503 22.8102 24.4054 18 24.4054C13.1898 24.4054 9.29032 20.503 9.29032 15.6892ZM18 10.4595C15.1139 10.4595 12.7742 12.8009 12.7742 15.6892C12.7742 18.5775 15.1139 20.9189 18 20.9189C20.8861 20.9189 23.2258 18.5775 23.2258 15.6892C23.2258 12.8009 20.8861 10.4595 18 10.4595Z" fill="white"/>
<path fill-rule="evenodd" clip-rule="evenodd" d="M2.80198 13.6606C3.43782 5.94104 9.88387 0 17.6238 0H18.3762C26.1162 0 32.5622 5.94104 33.198 13.6606C33.5389 17.7985 32.2616 21.9073 29.6354 25.1216L21.2862 35.3401C19.5877 37.4188 16.4123 37.4188 14.7138 35.3401L6.36462 25.1216C3.73837 21.9073 2.46116 17.7985 2.80198 13.6606ZM17.6238 3.48649C11.697 3.48649 6.76097 8.0358 6.27408 13.947C6.0074 17.1847 7.00675 20.3996 9.06165 22.9146L17.4109 33.1331C17.7154 33.5058 18.2847 33.5058 18.5892 33.1331L26.9384 22.9146C28.9933 20.3996 29.9926 17.1847 29.7259 13.947C29.2391 8.0358 24.303 3.48649 18.3762 3.48649H17.6238Z" fill="white"/>
<path d="M7.94513 32.7391C8.37537 31.8779 8.02659 30.8308 7.16611 30.4003C6.30564 29.9697 5.2593 30.3187 4.82906 31.1799L0.183903 40.4772C-0.086087 41.0175 -0.0572337 41.6593 0.260158 42.1732C0.577551 42.6872 1.13822 43 1.74194 43H34.2581C34.8618 43 35.4224 42.6872 35.7398 42.1732C36.0572 41.6593 36.0861 41.0175 35.8161 40.4772L31.1709 31.1799C30.7407 30.3187 29.6944 29.9697 28.8339 30.4003C27.9734 30.8308 27.6246 31.8779 28.0549 32.7391L31.4396 39.5135H4.56045L7.94513 32.7391Z" fill="white"/>
</svg>
