<svg width="82" height="93" viewBox="0 0 82 93" fill="none" xmlns="http://www.w3.org/2000/svg">
<g filter="url(#filter0_d_54_49)">
<path fill-rule="evenodd" clip-rule="evenodd" d="M40.9947 22.9533C48.6599 16.7161 57.768 16.7383 65.0189 20.963C72.7692 25.4801 78.2222 34.651 77.9817 45.3498C77.6895 58.3718 67.8009 69.8919 50.8907 80.2133L48.2234 81.8078C47.4798 82.248 46.6548 82.7178 45.8484 83.1248C44.3501 83.8869 42.7038 84.5898 40.9947 84.5898C39.2855 84.5898 37.6393 83.8869 36.1373 83.1248C35.5963 82.8482 35.0622 82.5583 34.5355 82.2554L32.4157 81.005C14.7027 70.4838 4.3073 58.7011 4.00765 45.3498C3.76719 34.651 9.22017 25.4838 16.9705 20.963C24.2214 16.742 33.3294 16.7124 40.9947 22.9533ZM20.6958 27.3594C15.3538 30.4743 11.2253 37.0852 11.4065 45.1907C11.6137 54.48 18.9534 64.4056 36.1928 74.6494C37.31 75.3116 38.4273 75.9923 39.489 76.5324C40.732 77.1613 41.2574 77.1613 42.5004 76.5324C43.207 76.1735 43.9431 75.7481 44.683 75.3116L45.7966 74.6457C54.494 69.4812 60.6683 64.3982 64.6859 59.4299C60.5866 59.3614 56.6744 57.7018 53.7763 54.8018L49.3739 50.3995L46.555 53.2185C43.7493 56.024 39.9441 57.6002 35.9764 57.6002C32.0087 57.6002 28.2035 56.024 25.3978 53.2185C24.4268 52.2477 23.6565 51.095 23.131 49.8265C22.6054 48.5579 22.3349 47.1983 22.3349 45.8251C22.3349 44.452 22.6054 43.0924 23.131 41.8238C23.6565 40.5552 24.4268 39.4026 25.3978 38.4318L35.649 28.1733C30.6325 24.4886 25.1796 24.7513 20.6958 27.3594ZM44.7348 29.5051L44.0282 30.1931C43.9111 30.3538 43.7812 30.5047 43.6398 30.6445L30.6288 43.6665C30.0559 44.2396 29.7341 45.0167 29.7341 45.827C29.7341 46.6373 30.0559 47.4144 30.6288 47.9875C32.0468 49.4048 33.9697 50.201 35.9745 50.201C37.9794 50.201 39.9023 49.4048 41.3202 47.9875L44.524 44.7838C45.1609 44.1468 45.917 43.6416 46.7491 43.2969C47.5813 42.9522 48.4732 42.7748 49.3739 42.7748C50.2747 42.7748 51.1666 42.9522 51.9987 43.2969C52.8309 43.6416 53.587 44.1468 54.2239 44.7838L59.0073 49.5708C60.3881 50.9517 62.2061 51.8094 64.1499 51.9971C66.0937 52.1847 68.0422 51.6905 69.6617 50.5993C70.2413 48.7742 70.5495 46.9701 70.5865 45.187C70.7678 37.0852 66.6355 30.4743 61.2935 27.3631C56.3289 24.4701 50.1693 24.4627 44.7348 29.5051Z" fill="url(#paint0_linear_54_49)"/>
<path fill-rule="evenodd" clip-rule="evenodd" d="M29.6084 9.72725C32.1606 7.1791 35.9834 5.72191 41 5.72191C46.0202 5.72191 49.8394 7.1791 52.3916 9.72725C54.4788 11.8062 55.9581 14.8503 56.4159 19.073L62 20C61.6558 13.9882 59.6858 9.07877 56.1888 5.59222C52.344 1.75854 47.0126 0 41 0C34.9874 0 29.656 1.75853 25.8112 5.5884C22.3142 9.07496 20.3442 13.9805 20 19.9962L25.8112 19.0713C25.7354 19.0714 25.6597 19.072 25.5841 19.073C26.0418 14.8503 27.5212 11.8062 29.6084 9.72725Z" fill="url(#paint1_linear_54_49)"/>
</g>
<defs>
<filter id="filter0_d_54_49" x="0" y="0" width="81.9894" height="92.5898" filterUnits="userSpaceOnUse" color-interpolation-filters="sRGB">
<feFlood flood-opacity="0" result="BackgroundImageFix"/>
<feColorMatrix in="SourceAlpha" type="matrix" values="0 0 0 0 0 0 0 0 0 0 0 0 0 0 0 0 0 0 127 0" result="hardAlpha"/>
<feOffset dy="4"/>
<feGaussianBlur stdDeviation="2"/>
<feComposite in2="hardAlpha" operator="out"/>
<feColorMatrix type="matrix" values="0 0 0 0 0 0 0 0 0 0 0 0 0 0 0 0 0 0 0.25 0"/>
<feBlend mode="normal" in2="BackgroundImageFix" result="effect1_dropShadow_54_49"/>
<feBlend mode="normal" in="SourceGraphic" in2="effect1_dropShadow_54_49" result="shape"/>
</filter>
<linearGradient id="paint0_linear_54_49" x1="23" y1="19" x2="62.5" y2="81" gradientUnits="userSpaceOnUse">
<stop stop-color="#EDB2C2"/>
<stop offset="1" stop-color="#8F3372"/>
</linearGradient>
<linearGradient id="paint1_linear_54_49" x1="23" y1="19" x2="62.5" y2="81" gradientUnits="userSpaceOnUse">
<stop stop-color="#EDB2C2"/>
<stop offset="1" stop-color="#8F3372"/>
</linearGradient>
</defs>
</svg>
