<svg width="40" height="46" viewBox="0 0 40 46" fill="none" xmlns="http://www.w3.org/2000/svg">
<path fill-rule="evenodd" clip-rule="evenodd" d="M20 12.482C24.144 9.09022 29.0679 9.10229 32.9879 11.3997C37.1779 13.8561 40.1259 18.8432 39.9959 24.6612C39.8379 31.7426 34.4919 38.0073 25.35 43.6201L23.908 44.4872C23.506 44.7266 23.06 44.982 22.624 45.2033C21.814 45.6178 20.924 46 20 46C19.076 46 18.186 45.6178 17.374 45.2033C17.0815 45.0529 16.7928 44.8953 16.508 44.7306L15.362 44.0506C5.7861 38.3292 0.166134 31.9217 0.00413536 24.6612C-0.125864 18.8432 2.82212 13.8581 7.01209 11.3997C10.9321 9.1043 15.856 9.08821 20 12.482ZM9.02607 14.8781C6.13809 16.572 3.90611 20.167 4.00411 24.5747C4.11611 29.6263 8.08408 35.0238 17.404 40.5944C18.008 40.9545 18.612 41.3247 19.186 41.6184C19.858 41.9604 20.142 41.9604 20.814 41.6184C21.196 41.4232 21.594 41.1919 21.994 40.9545L22.596 40.5924C27.298 37.784 30.6359 35.0198 32.8079 32.318C30.5917 32.2808 28.4768 31.3783 26.91 29.8013L24.53 27.4073L23.006 28.9403C21.4892 30.4659 19.432 31.323 17.287 31.323C15.142 31.323 13.0848 30.4659 11.5681 28.9403C11.0431 28.4123 10.6267 27.7855 10.3426 27.0957C10.0584 26.4058 9.9122 25.6665 9.9122 24.9198C9.9122 24.1731 10.0584 23.4337 10.3426 22.7438C10.6267 22.054 11.0431 21.4272 11.5681 20.8993L17.11 15.3206C14.398 13.3169 11.4501 13.4598 9.02607 14.8781ZM22.022 16.0449L21.64 16.4191C21.5767 16.5064 21.5064 16.5885 21.43 16.6645L14.396 23.7459C14.0863 24.0575 13.9123 24.4801 13.9123 24.9208C13.9123 25.3614 14.0863 25.784 14.396 26.0956C15.1626 26.8664 16.2021 27.2994 17.286 27.2994C18.3699 27.2994 19.4094 26.8664 20.176 26.0956L21.908 24.3535C22.2523 24.0071 22.6611 23.7323 23.111 23.5449C23.5608 23.3574 24.043 23.261 24.53 23.261C25.0169 23.261 25.4991 23.3574 25.949 23.5449C26.3989 23.7323 26.8076 24.0071 27.152 24.3535L29.7379 26.9567C30.4844 27.7076 31.4673 28.174 32.5181 28.2761C33.569 28.3781 34.6224 28.1094 35.4979 27.5159C35.8112 26.5235 35.9779 25.5424 35.9979 24.5727C36.0959 20.167 33.8619 16.572 30.9739 14.8801C28.2899 13.3069 24.96 13.3028 22.022 16.0449Z" fill="white"/>
<path fill-rule="evenodd" clip-rule="evenodd" d="M13.8443 5.28969C15.2241 3.904 17.2908 3.11158 20.0029 3.11158C22.7169 3.11158 24.7816 3.904 26.1614 5.28969C27.2898 6.42023 28.0895 8.0756 28.337 10.3719L31.3559 10.876C31.1698 7.60678 30.1047 4.93705 28.2142 3.04105C26.1357 0.956293 23.2534 0 20.0029 0C16.7524 0 13.8701 0.956293 11.7915 3.03898C9.901 4.93497 8.83597 7.60263 8.64989 10.8739L11.7915 10.371C11.7506 10.3711 11.7096 10.3714 11.6688 10.3719C11.9162 8.0756 12.716 6.42023 13.8443 5.28969Z" fill="white"/>
</svg>
