<svg width="135" height="38" viewBox="0 0 135 38" fill="none" xmlns="http://www.w3.org/2000/svg">
<path d="M58.1257 36.9922C55.5549 36.9922 53.3179 36.4693 51.4148 35.4235C49.5118 34.3439 48.0427 32.8257 47.0077 30.869C45.9727 28.9123 45.4552 26.6182 45.4552 23.9867C45.4552 21.9963 45.739 20.2251 46.3066 18.6732C46.9076 17.0876 47.7589 15.755 48.8607 14.6754C49.9625 13.5621 51.298 12.7187 52.8672 12.1452C54.4364 11.5379 56.1892 11.2343 58.1257 11.2343C59.2275 11.2343 60.4127 11.3861 61.6814 11.6897C62.9835 11.9934 64.2022 12.4994 65.3373 13.2079C65.8715 13.5453 66.2221 13.9501 66.389 14.4224C66.556 14.8947 66.5893 15.3839 66.4892 15.89C66.389 16.3623 66.172 16.784 65.8381 17.1551C65.5377 17.4924 65.1537 17.7117 64.6863 17.8129C64.2188 17.8804 63.7014 17.7623 63.1338 17.4587C62.3993 17.0201 61.648 16.6996 60.8801 16.4972C60.1122 16.2611 59.3777 16.143 58.6766 16.143C57.5748 16.143 56.6066 16.3285 55.7719 16.6996C54.9372 17.037 54.2194 17.543 53.6184 18.2178C53.0508 18.8588 52.6168 19.6685 52.3163 20.6468C52.0158 21.6252 51.8656 22.7554 51.8656 24.0373C51.8656 26.5339 52.4498 28.5075 53.6184 29.9581C54.8203 31.3751 56.5064 32.0835 58.6766 32.0835C59.3777 32.0835 60.0955 31.9823 60.83 31.7799C61.598 31.5775 62.3659 31.257 63.1338 30.8184C63.7014 30.5148 64.2022 30.4136 64.6362 30.5148C65.1036 30.616 65.4876 30.8521 65.7881 31.2233C66.0885 31.5606 66.2722 31.9823 66.3389 32.4884C66.4057 32.9607 66.339 33.433 66.1386 33.9053C65.9717 34.3776 65.6378 34.7656 65.137 35.0692C64.0352 35.744 62.8667 36.2331 61.6313 36.5368C60.396 36.8404 59.2275 36.9922 58.1257 36.9922Z" fill="url(#paint0_linear_2_19)"/>
<path d="M73.5346 36.891C72.5329 36.891 71.765 36.6211 71.2308 36.0813C70.6966 35.5078 70.4295 34.6981 70.4295 33.6523V3.59295C70.4295 2.54711 70.6966 1.7543 71.2308 1.21452C71.765 0.674731 72.5329 0.404837 73.5346 0.404837C74.5362 0.404837 75.3041 0.674731 75.8383 1.21452C76.4059 1.7543 76.6897 2.54711 76.6897 3.59295V22.2662H76.7898L85.0532 13.4609C85.7209 12.7862 86.3052 12.2633 86.806 11.8922C87.3068 11.5211 87.9912 11.3355 88.8593 11.3355C89.7274 11.3355 90.3784 11.5717 90.8125 12.044C91.2799 12.4826 91.5136 13.0223 91.5136 13.6633C91.5136 14.3043 91.2131 14.9453 90.6121 15.5863L81.8981 24.8976V22.2662L91.4635 32.6908C92.0645 33.3318 92.3316 33.9897 92.2648 34.6644C92.2314 35.3054 91.9643 35.8452 91.4635 36.2837C90.9627 36.6886 90.3284 36.891 89.5604 36.891C88.6256 36.891 87.8744 36.7055 87.3068 36.3344C86.7726 35.9632 86.1716 35.4066 85.5039 34.6644L76.7898 25.4543H76.6897V33.6523C76.6897 35.8114 75.638 36.891 73.5346 36.891Z" fill="url(#paint1_linear_2_19)"/>
<path d="M109.064 36.8404C108.062 36.8404 107.294 36.5368 106.76 35.9295C106.226 35.3223 105.959 34.4788 105.959 33.3993V14.8272C105.959 13.7139 106.226 12.8705 106.76 12.297C107.294 11.6897 108.062 11.3861 109.064 11.3861C110.066 11.3861 110.833 11.6897 111.368 12.297C111.935 12.8705 112.219 13.7139 112.219 14.8272V33.3993C112.219 34.4788 111.952 35.3223 111.418 35.9295C110.884 36.5368 110.099 36.8404 109.064 36.8404ZM109.064 6.67985C107.895 6.67985 106.977 6.39309 106.31 5.81957C105.675 5.21231 105.358 4.38576 105.358 3.33993C105.358 2.26035 105.675 1.43381 106.31 0.860282C106.977 0.286761 107.895 0 109.064 0C110.266 0 111.184 0.286761 111.818 0.860282C112.453 1.43381 112.77 2.26035 112.77 3.33993C112.77 4.38576 112.453 5.21231 111.818 5.81957C111.184 6.39309 110.266 6.67985 109.064 6.67985Z" fill="url(#paint2_linear_2_19)"/>
<path d="M129.942 36.9922C127.772 36.9922 125.952 36.6211 124.483 35.8789C123.047 35.1367 121.979 34.0571 121.278 32.6402C120.577 31.1895 120.226 29.4015 120.226 27.2761V16.4972H117.622C116.821 16.4972 116.203 16.2948 115.769 15.89C115.335 15.4514 115.118 14.861 115.118 14.1188C115.118 13.3428 115.335 12.7524 115.769 12.3476C116.203 11.9428 116.821 11.7403 117.622 11.7403H120.226V7.1353C120.226 6.08946 120.493 5.29665 121.027 4.75686C121.595 4.21708 122.38 3.94719 123.381 3.94719C124.383 3.94719 125.151 4.21708 125.685 4.75686C126.219 5.29665 126.486 6.08946 126.486 7.1353V11.7403H131.795C132.596 11.7403 133.214 11.9428 133.648 12.3476C134.082 12.7524 134.299 13.3428 134.299 14.1188C134.299 14.861 134.082 15.4514 133.648 15.89C133.214 16.2948 132.596 16.4972 131.795 16.4972H126.486V26.9218C126.486 28.5412 126.837 29.7557 127.538 30.5654C128.239 31.3751 129.374 31.7799 130.943 31.7799C131.511 31.7799 132.012 31.7293 132.446 31.6281C132.88 31.5269 133.264 31.4594 133.598 31.4257C133.998 31.3919 134.332 31.5269 134.599 31.8305C134.866 32.1004 135 32.6739 135 33.5511C135 34.2258 134.883 34.8331 134.649 35.3729C134.449 35.8789 134.065 36.2331 133.498 36.4356C133.064 36.5705 132.496 36.6886 131.795 36.7898C131.094 36.9247 130.476 36.9922 129.942 36.9922Z" fill="url(#paint3_linear_2_19)"/>
<path d="M8.36351 36.9922C5.59237 36.9922 3.50566 36.1994 2.1034 34.6138C0.701133 32.9944 0 30.6329 0 27.5291V3.59295C0 2.54711 0.267098 1.7543 0.801294 1.21452C1.33549 0.674731 2.1034 0.404837 3.10502 0.404837C4.10663 0.404837 4.87454 0.674731 5.40874 1.21452C5.97632 1.7543 6.26011 2.54711 6.26011 3.59295V27.2255C6.26011 28.7773 6.57729 29.9244 7.21165 30.6666C7.8794 31.4088 8.81424 31.7799 10.0162 31.7799C10.2833 31.7799 10.5337 31.7799 10.7674 31.7799C11.0011 31.7462 11.2348 31.7124 11.4685 31.6787C11.936 31.6112 12.2531 31.7462 12.4201 32.0835C12.587 32.3872 12.6705 33.0282 12.6705 34.0065C12.6705 34.8499 12.5035 35.5078 12.1697 35.9801C11.8358 36.4524 11.2849 36.7392 10.517 36.8404C10.1831 36.8741 9.83255 36.9079 9.46529 36.9416C9.09803 36.9753 8.73077 36.9922 8.36351 36.9922Z" fill="url(#paint4_linear_2_19)"/>
<path fill-rule="evenodd" clip-rule="evenodd" d="M28.4604 12.0074C31.6595 9.37713 35.4606 9.38649 38.4867 11.1681C41.7212 13.073 43.997 16.9404 43.8966 21.4522C43.7747 26.9437 39.6477 31.8018 32.5904 36.1544L31.4773 36.8268C31.1669 37.0125 30.8226 37.2106 30.4861 37.3822C29.8608 37.7036 29.1737 38 28.4604 38C27.7471 38 27.0601 37.7036 26.4333 37.3822C26.2075 37.2656 25.9846 37.1433 25.7647 37.0156L24.8801 36.4883C17.4877 32.0514 13.1493 27.0825 13.0242 21.4522C12.9239 16.9404 15.1996 13.0745 18.4342 11.1681C21.4603 9.38805 25.2614 9.37557 28.4604 12.0074ZM19.9889 13.8655C17.7595 15.1791 16.0364 17.967 16.1121 21.3851C16.1985 25.3025 19.2617 29.4882 26.4564 33.8081C26.9227 34.0873 27.3889 34.3744 27.8321 34.6021C28.3508 34.8674 28.5701 34.8674 29.0888 34.6021C29.3837 34.4508 29.6909 34.2714 29.9997 34.0873L30.4645 33.8065C34.0942 31.6286 36.671 29.4851 38.3478 27.3899C36.6369 27.361 35.0042 26.6611 33.7947 25.4382L31.9574 23.5817L30.781 24.7705C29.6101 25.9536 28.022 26.6183 26.3661 26.6183C24.7102 26.6183 23.1221 25.9536 21.9512 24.7705C21.546 24.3611 21.2245 23.875 21.0052 23.34C20.7858 22.8051 20.673 22.2317 20.673 21.6527C20.673 21.0736 20.7858 20.5002 21.0052 19.9653C21.2245 19.4303 21.546 18.9442 21.9512 18.5348L26.2295 14.2087C24.1359 12.6549 21.8601 12.7656 19.9889 13.8655ZM30.0213 14.7703L29.7265 15.0605C29.6776 15.1283 29.6234 15.1919 29.5643 15.2508L24.1343 20.7423C23.8952 20.984 23.7609 21.3117 23.7609 21.6534C23.7609 21.9951 23.8952 22.3229 24.1343 22.5645C24.7261 23.1622 25.5286 23.498 26.3653 23.498C27.202 23.498 28.0045 23.1622 28.5963 22.5645L29.9333 21.2135C30.1991 20.9449 30.5147 20.7318 30.862 20.5865C31.2093 20.4411 31.5815 20.3663 31.9574 20.3663C32.3333 20.3663 32.7056 20.4411 33.0529 20.5865C33.4002 20.7318 33.7157 20.9449 33.9815 21.2135L35.9778 23.2322C36.5541 23.8146 37.3128 24.1763 38.1241 24.2554C38.9353 24.3345 39.7485 24.1261 40.4243 23.6659C40.6662 22.8963 40.7949 22.1355 40.8103 21.3835C40.886 17.967 39.1614 15.1791 36.932 13.8671C34.86 12.6471 32.2894 12.6439 30.0213 14.7703Z" fill="url(#paint5_linear_2_19)"/>
<path fill-rule="evenodd" clip-rule="evenodd" d="M23.7085 6.42989C24.7736 5.35531 26.369 4.7408 28.4626 4.7408C30.5578 4.7408 32.1517 5.35531 33.2168 6.42989C34.0879 7.3066 34.7053 8.59031 34.8963 10.3711L37.2268 10.762C37.0832 8.22675 36.261 6.15642 34.8016 4.68611C33.197 3.06942 30.9719 2.32783 28.4626 2.32783C25.9534 2.32783 23.7283 3.06942 22.1237 4.6845C20.6643 6.15481 19.8421 8.22353 19.6985 10.7604L22.1237 10.3704C22.0921 10.3704 22.0605 10.3707 22.029 10.3711C22.22 8.59031 22.8374 7.3066 23.7085 6.42989Z" fill="url(#paint6_linear_2_19)"/>
<defs>
<linearGradient id="paint0_linear_2_19" x1="13.8449" y1="-0.968248" x2="97.8305" y2="55.1721" gradientUnits="userSpaceOnUse">
<stop offset="0.156266" stop-color="#F3BBC8"/>
<stop offset="0.674711" stop-color="#A84887"/>
</linearGradient>
<linearGradient id="paint1_linear_2_19" x1="13.8449" y1="-0.968248" x2="97.8305" y2="55.1721" gradientUnits="userSpaceOnUse">
<stop offset="0.156266" stop-color="#F3BBC8"/>
<stop offset="0.674711" stop-color="#A84887"/>
</linearGradient>
<linearGradient id="paint2_linear_2_19" x1="32.3438" y1="-15.6715" x2="28.8253" y2="50.3651" gradientUnits="userSpaceOnUse">
<stop stop-color="#F3BBC8"/>
<stop offset="0.744418" stop-color="#A84887"/>
</linearGradient>
<linearGradient id="paint3_linear_2_19" x1="32.3438" y1="-15.6715" x2="28.8253" y2="50.3651" gradientUnits="userSpaceOnUse">
<stop stop-color="#F3BBC8"/>
<stop offset="0.744418" stop-color="#A84887"/>
</linearGradient>
<linearGradient id="paint4_linear_2_19" x1="4.82769e-07" y1="12.0446" x2="29.5487" y2="64.3962" gradientUnits="userSpaceOnUse">
<stop stop-color="#F3BBC8"/>
<stop offset="0.817044" stop-color="#8E3271"/>
</linearGradient>
<linearGradient id="paint5_linear_2_19" x1="20.9505" y1="10.3403" x2="37.6807" y2="36.3283" gradientUnits="userSpaceOnUse">
<stop stop-color="#EDB2C2"/>
<stop offset="1" stop-color="#8F3372"/>
</linearGradient>
<linearGradient id="paint6_linear_2_19" x1="20.9505" y1="10.3403" x2="37.6807" y2="36.3283" gradientUnits="userSpaceOnUse">
<stop stop-color="#EDB2C2"/>
<stop offset="1" stop-color="#8F3372"/>
</linearGradient>
</defs>
</svg>
