<svg width="39" height="42" viewBox="0 0 39 42" fill="none" xmlns="http://www.w3.org/2000/svg">
<path fill-rule="evenodd" clip-rule="evenodd" d="M3.05609 28.3896C-1.86998 14.8327 7.02532 0 20.0815 0H20.7859C30.5502 0 38.4657 8.87496 38.4657 19.8228C38.4657 32.0118 29.6527 41.8931 18.7814 41.8931H1.64367C0.946231 41.8931 0.324733 41.3995 0.0932554 40.6619C-0.138221 39.9242 0.0707334 39.1031 0.614524 38.6134L4.93493 34.7232C5.12384 34.5531 5.19066 34.2641 5.09925 34.0125L3.05609 28.3896ZM20.0815 3.68561C9.35981 3.68561 2.05504 15.8662 6.1003 26.999L8.14347 32.6219C8.78336 34.383 8.31559 36.4061 6.99323 37.5968L6.3151 38.2074H18.7814C27.8372 38.2074 35.1785 29.9763 35.1785 19.8228C35.1785 10.9105 28.7347 3.68561 20.7859 3.68561H20.0815Z" fill="white"/>
</svg>
