<svg width="28" height="28" viewBox="0 0 28 28" fill="none" xmlns="http://www.w3.org/2000/svg">
<path d="M20.5113 16.3334C20.8567 16.3334 21.188 16.1929 21.4322 15.9429C21.6765 15.6928 21.8137 15.3537 21.8137 15.0001C21.8137 14.6465 21.6765 14.3073 21.4322 14.0573C21.188 13.8072 20.8567 13.6667 20.5113 13.6667C20.1659 13.6667 19.8346 13.8072 19.5904 14.0573C19.3461 14.3073 19.2089 14.6465 19.2089 15.0001C19.2089 15.3537 19.3461 15.6928 19.5904 15.9429C19.8346 16.1929 20.1659 16.3334 20.5113 16.3334ZM20.5113 21.6667C20.8567 21.6667 21.188 21.5263 21.4322 21.2762C21.6765 21.0262 21.8137 20.687 21.8137 20.3334C21.8137 19.9798 21.6765 19.6407 21.4322 19.3906C21.188 19.1406 20.8567 19.0001 20.5113 19.0001C20.1659 19.0001 19.8346 19.1406 19.5904 19.3906C19.3461 19.6407 19.2089 19.9798 19.2089 20.3334C19.2089 20.687 19.3461 21.0262 19.5904 21.2762C19.8346 21.5263 20.1659 21.6667 20.5113 21.6667ZM15.3018 15.0001C15.3018 15.3537 15.1645 15.6928 14.9203 15.9429C14.6761 16.1929 14.3448 16.3334 13.9994 16.3334C13.654 16.3334 13.3227 16.1929 13.0784 15.9429C12.8342 15.6928 12.697 15.3537 12.697 15.0001C12.697 14.6465 12.8342 14.3073 13.0784 14.0573C13.3227 13.8072 13.654 13.6667 13.9994 13.6667C14.3448 13.6667 14.6761 13.8072 14.9203 14.0573C15.1645 14.3073 15.3018 14.6465 15.3018 15.0001ZM15.3018 20.3334C15.3018 20.687 15.1645 21.0262 14.9203 21.2762C14.6761 21.5263 14.3448 21.6667 13.9994 21.6667C13.654 21.6667 13.3227 21.5263 13.0784 21.2762C12.8342 21.0262 12.697 20.687 12.697 20.3334C12.697 19.9798 12.8342 19.6407 13.0784 19.3906C13.3227 19.1406 13.654 19.0001 13.9994 19.0001C14.3448 19.0001 14.6761 19.1406 14.9203 19.3906C15.1645 19.6407 15.3018 19.9798 15.3018 20.3334ZM7.48744 16.3334C7.83286 16.3334 8.16413 16.1929 8.40837 15.9429C8.65262 15.6928 8.78983 15.3537 8.78983 15.0001C8.78983 14.6465 8.65262 14.3073 8.40837 14.0573C8.16413 13.8072 7.83286 13.6667 7.48744 13.6667C7.14203 13.6667 6.81076 13.8072 6.56652 14.0573C6.32227 14.3073 6.18506 14.6465 6.18506 15.0001C6.18506 15.3537 6.32227 15.6928 6.56652 15.9429C6.81076 16.1929 7.14203 16.3334 7.48744 16.3334ZM7.48744 21.6667C7.83286 21.6667 8.16413 21.5263 8.40837 21.2762C8.65262 21.0262 8.78983 20.687 8.78983 20.3334C8.78983 19.9798 8.65262 19.6407 8.40837 19.3906C8.16413 19.1406 7.83286 19.0001 7.48744 19.0001C7.14203 19.0001 6.81076 19.1406 6.56652 19.3906C6.32227 19.6407 6.18506 19.9798 6.18506 20.3334C6.18506 20.687 6.32227 21.0262 6.56652 21.2762C6.81076 21.5263 7.14203 21.6667 7.48744 21.6667Z" fill="white"/>
<path fill-rule="evenodd" clip-rule="evenodd" d="M7.48742 0C7.74648 0 7.99493 0.105357 8.17811 0.292893C8.3613 0.48043 8.46421 0.734784 8.46421 1V2.01733C9.32639 2 10.2758 2 11.3203 2H16.6771C17.7229 2 18.6723 2 19.5345 2.01733V1C19.5345 0.734784 19.6374 0.48043 19.8206 0.292893C20.0038 0.105357 20.2522 0 20.5113 0C20.7703 0 21.0188 0.105357 21.202 0.292893C21.3852 0.48043 21.4881 0.734784 21.4881 1V2.10267C21.8267 2.12933 22.1475 2.16311 22.4505 2.204C23.9769 2.41467 25.2129 2.85733 26.1884 3.85467C27.1626 4.85333 27.595 6.11867 27.8007 7.68133C28 9.20133 28 11.1413 28 13.592V16.408C28 18.8587 28 20.8 27.8007 22.3187C27.595 23.8813 27.1626 25.1467 26.1884 26.1453C25.2129 27.1427 23.9769 27.5853 22.4505 27.796C20.9658 28 19.0708 28 16.6771 28H11.3229C8.92916 28 7.03289 28 5.54947 27.796C4.02307 27.5853 2.78711 27.1427 1.81162 26.1453C0.837434 25.1467 0.405042 23.8813 0.199265 22.3187C0 20.7987 0 18.8587 0 16.408V13.592C0 11.1413 0 9.2 0.199265 7.68133C0.405042 6.11867 0.837434 4.85333 1.81162 3.85467C2.78711 2.85733 4.02307 2.41467 5.54947 2.204C5.85336 2.16311 6.17418 2.12933 6.51193 2.10267V1C6.51193 0.735014 6.61466 0.480862 6.79757 0.293364C6.98047 0.105866 7.22858 0.000353314 7.48742 0ZM5.80734 4.18667C4.49844 4.36667 3.74306 4.70533 3.19215 5.26933C2.64124 5.83333 2.31043 6.60667 2.13461 7.94667C2.10509 8.17333 2.07991 8.41289 2.05907 8.66533H25.9396C25.9188 8.41289 25.8936 8.17289 25.8641 7.94533C25.6883 6.60533 25.3575 5.832 24.8066 5.268C24.2556 4.704 23.5003 4.36533 22.1901 4.18533C20.8525 4.00133 19.0878 3.99867 16.6041 3.99867H11.3946C8.91093 3.99867 7.1475 4.00267 5.80734 4.18667ZM1.95228 13.6667C1.95228 12.528 1.95228 11.5373 1.96921 10.6667H26.0295C26.0464 11.5373 26.0464 12.528 26.0464 13.6667V16.3333C26.0464 18.876 26.0438 20.6827 25.8641 22.0533C25.6883 23.3933 25.3575 24.1667 24.8066 24.7307C24.2556 25.2947 23.5003 25.6333 22.1901 25.8133C20.8525 25.9973 19.0878 26 16.6041 26H11.3946C8.91093 26 7.1475 25.9973 5.80734 25.8133C4.49844 25.6333 3.74306 25.2947 3.19215 24.7307C2.64124 24.1667 2.31043 23.3933 2.13461 22.052C1.95488 20.6827 1.95228 18.876 1.95228 16.3333V13.6667Z" fill="white"/>
</svg>
