<svg width="30" height="28" viewBox="0 0 30 28" fill="none" xmlns="http://www.w3.org/2000/svg">
<path fill-rule="evenodd" clip-rule="evenodd" d="M12.4765 1.38019C13.5443 -0.460066 16.2018 -0.460061 17.2696 1.38019L20.5398 7.01585C20.8412 7.53531 21.3622 7.88981 21.9561 7.9795L27.3863 8.79968C29.7534 9.15719 30.5837 12.1458 28.7403 13.6731L24.7837 16.9511C24.2283 17.4112 23.9672 18.137 24.1021 18.8454L25.2104 24.6657C25.6446 26.9456 23.2511 28.717 21.1975 27.6357L15.7952 24.7912C15.218 24.4872 14.5281 24.4872 13.951 24.7912L8.54857 27.6357C6.49496 28.717 4.10156 26.9456 4.5357 24.6657L5.64401 18.8454C5.77891 18.137 5.51779 17.4112 4.96244 16.9511L1.00585 13.6731C-0.8376 12.1458 -0.00729418 9.15719 2.35978 8.79968L7.79006 7.9795C8.3839 7.88981 8.9049 7.53531 9.20633 7.01584L12.4765 1.38019ZM15.2154 2.57217C15.0629 2.30928 14.6832 2.30928 14.5307 2.57217L11.2605 8.20782C10.5974 9.35065 9.45122 10.1305 8.14475 10.3279L2.71447 11.148C2.37632 11.1991 2.25771 11.6261 2.52105 11.8442L6.47765 15.1222C7.6994 16.1345 8.27387 17.7311 7.97708 19.2897L6.86878 25.11C6.80676 25.4357 7.14867 25.6887 7.44205 25.5343L12.8444 22.6897C14.1142 22.0211 15.6319 22.0211 16.9017 22.6897L22.3041 25.5343C22.5974 25.6887 22.9394 25.4357 22.8773 25.11L21.769 19.2897C21.4722 17.7311 22.0467 16.1345 23.2685 15.1222L27.2251 11.8442C27.4884 11.6261 27.3698 11.1991 27.0316 11.148L21.6014 10.3279C20.2949 10.1305 19.1487 9.35065 18.4856 8.20782L15.2154 2.57217Z" fill="white"/>
</svg>
