<svg width="28" height="28" viewBox="0 0 28 28" fill="none" xmlns="http://www.w3.org/2000/svg">
<path d="M8.00262 1.03846C8.00262 0.763044 7.89112 0.498908 7.69263 0.304158C7.49415 0.109409 7.22496 0 6.94426 0C6.66357 0 6.39437 0.109409 6.19589 0.304158C5.9974 0.498908 5.8859 0.763044 5.8859 1.03846V3.22615C3.85385 3.38538 2.52172 3.77585 1.54238 4.73815C0.561637 5.69908 0.163693 7.00754 0 9H28C27.8363 7.00615 27.4384 5.69908 26.4576 4.73815C25.4783 3.77585 24.1447 3.38538 22.1141 3.22477V1.03846C22.1141 0.763044 22.0026 0.498908 21.8041 0.304158C21.6056 0.109409 21.3364 0 21.0557 0C20.775 0 20.5058 0.109409 20.3074 0.304158C20.1089 0.498908 19.9974 0.763044 19.9974 1.03846V3.13338C19.059 3.11538 18.0063 3.11538 16.8223 3.11538H11.1777C9.99375 3.11538 8.94104 3.11538 8.00262 3.13338V1.03846Z" fill="white"/>
<path fill-rule="evenodd" clip-rule="evenodd" d="M28 14.1224V16.898C28 22.1312 28 24.7485 26.3592 26.3736C24.7184 27.9986 22.0794 28 16.8 28H11.2C5.9206 28 3.2802 28 1.6408 26.3736C0.0013999 24.7471 0 22.1312 0 16.898V14.1224C0 12.9581 1.56462e-08 11.9229 0.0182 11H27.9818C28 11.9229 28 12.9581 28 14.1224ZM19.6 15.8571C19.8785 15.8571 20.1455 15.9668 20.3425 16.162C20.5394 16.3572 20.65 16.6219 20.65 16.898V18.6327H22.4C22.6785 18.6327 22.9455 18.7423 23.1425 18.9375C23.3394 19.1327 23.45 19.3974 23.45 19.6735C23.45 19.9495 23.3394 20.2142 23.1425 20.4094C22.9455 20.6046 22.6785 20.7143 22.4 20.7143H20.65V22.449C20.65 22.725 20.5394 22.9898 20.3425 23.1849C20.1455 23.3801 19.8785 23.4898 19.6 23.4898C19.3215 23.4898 19.0545 23.3801 18.8575 23.1849C18.6606 22.9898 18.55 22.725 18.55 22.449V20.7143H16.8C16.5215 20.7143 16.2545 20.6046 16.0575 20.4094C15.8606 20.2142 15.75 19.9495 15.75 19.6735C15.75 19.3974 15.8606 19.1327 16.0575 18.9375C16.2545 18.7423 16.5215 18.6327 16.8 18.6327H18.55V16.898C18.55 16.6219 18.6606 16.3572 18.8575 16.162C19.0545 15.9668 19.3215 15.8571 19.6 15.8571Z" fill="white"/>
</svg>
