<svg width="29" height="28" viewBox="0 0 29 28" fill="none" xmlns="http://www.w3.org/2000/svg">
<path d="M25.7768 9.57606L25.2825 9.30055L25.1299 9.21412C24.7617 8.99316 24.4515 8.6876 24.2251 8.32279C24.2007 8.28633 24.1791 8.24717 24.1359 8.17154C23.8448 7.70417 23.7034 7.15898 23.7308 6.60901L23.7389 6.03505C23.7551 5.11671 23.7632 4.65484 23.6335 4.24159C23.5188 3.87391 23.3268 3.53501 23.0704 3.24763C22.7814 2.92351 22.3803 2.69122 21.5767 2.22935L20.9096 1.84446C20.1101 1.38394 19.709 1.15301 19.2836 1.06522C18.9077 0.98745 18.5196 0.990672 18.1451 1.07468C17.7224 1.16921 17.3267 1.4069 16.5367 1.87957L16.5326 1.88227L16.0545 2.16723C15.9789 2.21315 15.9398 2.23475 15.9019 2.25636C15.5265 2.46569 15.1078 2.58048 14.677 2.59399C14.6338 2.59669 14.5893 2.59669 14.5015 2.59669L14.3259 2.59534C13.895 2.58161 13.4736 2.46492 13.097 2.25501C13.0591 2.23475 13.0227 2.21179 12.9471 2.16588L12.4649 1.87687C11.6695 1.3988 11.2711 1.16111 10.8457 1.06522C10.4698 0.981082 10.0802 0.978319 9.70316 1.05712C9.2764 1.14625 8.87665 1.37854 8.07581 1.84311L8.07176 1.84446L7.41271 2.22665L7.40596 2.23205C6.61187 2.69122 6.21347 2.92351 5.92717 3.24628C5.67203 3.53311 5.48096 3.87104 5.36671 4.23754C5.23841 4.65214 5.24517 5.11401 5.26137 6.03775L5.27083 6.61036C5.27083 6.69815 5.27488 6.74136 5.27353 6.78323C5.26653 7.27389 5.126 7.75338 4.86703 8.17019C4.82246 8.24582 4.8022 8.28363 4.77925 8.31874C4.55154 8.68631 4.23892 8.99384 3.86766 9.21547L3.7164 9.30055L3.22888 9.57065C2.41588 10.0204 2.00938 10.2459 1.71497 10.5673C1.45322 10.8507 1.2552 11.1869 1.13425 11.5532C0.999205 11.9678 0.999205 12.431 1.00056 13.3601L1.00326 14.1205C1.00461 15.0429 1.00731 15.5034 1.14371 15.9153C1.26415 16.2793 1.46073 16.6136 1.72037 16.8957C2.01478 17.2145 2.41723 17.4386 3.22347 17.887L3.70695 18.1558C3.78933 18.2017 3.8312 18.2233 3.87036 18.2476C4.29357 18.5013 4.6392 18.8661 4.86973 19.3023L4.96021 19.4644C5.18833 19.8951 5.29566 20.3795 5.27083 20.8662L5.26137 21.4159C5.24517 22.3423 5.23841 22.8069 5.36806 23.2215C5.48285 23.5888 5.67463 23.9278 5.93122 24.2154C6.22023 24.5396 6.62267 24.7705 7.42487 25.2337L8.09202 25.6186C8.89286 26.0791 9.29261 26.3101 9.71801 26.3978C10.0939 26.4756 10.482 26.4724 10.8565 26.3884C11.2805 26.2939 11.6762 26.0562 12.469 25.5808L12.9471 25.2945L13.0997 25.2054C13.4751 24.9974 13.8938 24.8812 14.3246 24.8677L14.5001 24.8664H14.6757C15.1051 24.8799 15.5265 24.9974 15.9046 25.2067L16.0289 25.281L16.5367 25.5862C17.3335 26.0643 17.7305 26.302 18.1559 26.3965C18.5316 26.4815 18.9212 26.4852 19.2984 26.4073C19.7238 26.3182 20.1263 26.0845 20.9271 25.62L21.5956 25.2324C22.3897 24.7705 22.7881 24.5396 23.0744 24.2168C23.331 23.9291 23.5201 23.5915 23.6349 23.2255C23.7632 22.8136 23.7564 22.3558 23.7402 21.4456L23.7294 20.8514V20.6798C23.7358 20.1888 23.8758 19.7089 24.1346 19.2915L24.2224 19.143C24.4501 18.7754 24.7627 18.4679 25.1339 18.2462L25.2825 18.1639L25.2852 18.1625L25.7727 17.8924C26.5857 17.4414 26.9922 17.2172 27.288 16.8957C27.55 16.6121 27.7471 16.2745 27.8673 15.9099C28.0024 15.498 28.0024 15.0361 27.9997 14.1178L27.997 13.3426C27.9956 12.4202 27.9943 11.9583 27.8579 11.5464C27.7369 11.1827 27.5398 10.849 27.2799 10.5673C26.9868 10.2486 26.5844 10.0244 25.7795 9.5774L25.7768 9.57606Z" stroke="white" stroke-width="2" stroke-linecap="round" stroke-linejoin="round"/>
<path d="M9.09824 13.7313C9.09824 15.164 9.66737 16.538 10.6804 17.5511C11.6935 18.5642 13.0675 19.1333 14.5002 19.1333C15.9329 19.1333 17.3069 18.5642 18.32 17.5511C19.3331 16.538 19.9022 15.164 19.9022 13.7313C19.9022 12.2986 19.3331 10.9246 18.32 9.91155C17.3069 8.89848 15.9329 8.32935 14.5002 8.32935C13.0675 8.32935 11.6935 8.89848 10.6804 9.91155C9.66737 10.9246 9.09824 12.2986 9.09824 13.7313Z" stroke="white" stroke-width="2" stroke-linecap="round" stroke-linejoin="round"/>
</svg>
