<svg width="58" height="15" viewBox="0 0 58 15" fill="none" xmlns="http://www.w3.org/2000/svg">
<rect width="58" height="13" rx="6.5" fill="#75C26B"/>
<path d="M18.2469 9L17.3869 6.79H14.5569L13.7069 9H12.7969L15.5869 1.83H16.3969L19.1769 9H18.2469ZM16.3169 3.83C16.2969 3.77667 16.2635 3.68 16.2169 3.54C16.1702 3.4 16.1235 3.25667 16.0769 3.11C16.0369 2.95667 16.0035 2.84 15.9769 2.76C15.9435 2.89333 15.9069 3.03 15.8669 3.17C15.8335 3.30333 15.7969 3.42667 15.7569 3.54C15.7235 3.65333 15.6935 3.75 15.6669 3.83L14.8569 5.99H17.1169L16.3169 3.83ZM22.1836 9.1C21.7103 9.1 21.2869 9.00333 20.9136 8.81C20.5469 8.61667 20.2569 8.31667 20.0436 7.91C19.8369 7.50333 19.7336 6.98333 19.7336 6.35C19.7336 5.69 19.8436 5.15333 20.0636 4.74C20.2836 4.32667 20.5803 4.02333 20.9536 3.83C21.3336 3.63667 21.7636 3.54 22.2436 3.54C22.5169 3.54 22.7803 3.57 23.0336 3.63C23.2869 3.68333 23.4936 3.75 23.6536 3.83L23.3836 4.56C23.2236 4.5 23.0369 4.44333 22.8236 4.39C22.6103 4.33667 22.4103 4.31 22.2236 4.31C21.8636 4.31 21.5669 4.38667 21.3336 4.54C21.1003 4.69333 20.9269 4.92 20.8136 5.22C20.7003 5.52 20.6436 5.89333 20.6436 6.34C20.6436 6.76667 20.7003 7.13 20.8136 7.43C20.9269 7.73 21.0969 7.95667 21.3236 8.11C21.5503 8.26333 21.8336 8.34 22.1736 8.34C22.4669 8.34 22.7236 8.31 22.9436 8.25C23.1703 8.19 23.3769 8.11667 23.5636 8.03V8.81C23.3836 8.90333 23.1836 8.97333 22.9636 9.02C22.7503 9.07333 22.4903 9.1 22.1836 9.1ZM26.9883 9.1C26.5149 9.1 26.0916 9.00333 25.7183 8.81C25.3516 8.61667 25.0616 8.31667 24.8483 7.91C24.6416 7.50333 24.5383 6.98333 24.5383 6.35C24.5383 5.69 24.6483 5.15333 24.8683 4.74C25.0883 4.32667 25.3849 4.02333 25.7583 3.83C26.1383 3.63667 26.5683 3.54 27.0483 3.54C27.3216 3.54 27.5849 3.57 27.8383 3.63C28.0916 3.68333 28.2983 3.75 28.4583 3.83L28.1883 4.56C28.0283 4.5 27.8416 4.44333 27.6283 4.39C27.4149 4.33667 27.2149 4.31 27.0283 4.31C26.6683 4.31 26.3716 4.38667 26.1383 4.54C25.9049 4.69333 25.7316 4.92 25.6183 5.22C25.5049 5.52 25.4483 5.89333 25.4483 6.34C25.4483 6.76667 25.5049 7.13 25.6183 7.43C25.7316 7.73 25.9016 7.95667 26.1283 8.11C26.3549 8.26333 26.6383 8.34 26.9783 8.34C27.2716 8.34 27.5283 8.31 27.7483 8.25C27.9749 8.19 28.1816 8.11667 28.3683 8.03V8.81C28.1883 8.90333 27.9883 8.97333 27.7683 9.02C27.5549 9.07333 27.2949 9.1 26.9883 9.1ZM31.713 3.54C32.173 3.54 32.5663 3.64 32.893 3.84C33.2263 4.04 33.4796 4.32333 33.653 4.69C33.833 5.05 33.923 5.47333 33.923 5.96V6.49H30.253C30.2663 7.09667 30.4196 7.56 30.713 7.88C31.013 8.19333 31.4296 8.35 31.963 8.35C32.303 8.35 32.603 8.32 32.863 8.26C33.1296 8.19333 33.403 8.1 33.683 7.98V8.75C33.4096 8.87 33.1396 8.95667 32.873 9.01C32.6063 9.07 32.2896 9.1 31.923 9.1C31.4163 9.1 30.9663 8.99667 30.573 8.79C30.1863 8.58333 29.883 8.27667 29.663 7.87C29.4496 7.45667 29.343 6.95333 29.343 6.36C29.343 5.77333 29.4396 5.27 29.633 4.85C29.833 4.43 30.1096 4.10667 30.463 3.88C30.823 3.65333 31.2396 3.54 31.713 3.54ZM31.703 4.26C31.283 4.26 30.9496 4.39667 30.703 4.67C30.463 4.93667 30.3196 5.31 30.273 5.79H33.003C33.003 5.48333 32.9563 5.21667 32.863 4.99C32.7696 4.76333 32.6263 4.58667 32.433 4.46C32.2463 4.32667 32.003 4.26 31.703 4.26ZM37.8375 3.54C38.4975 3.54 39.0275 3.77 39.4275 4.23C39.8342 4.69 40.0375 5.38333 40.0375 6.31C40.0375 6.91667 39.9442 7.43 39.7575 7.85C39.5775 8.26333 39.3208 8.57667 38.9875 8.79C38.6608 8.99667 38.2742 9.1 37.8275 9.1C37.5542 9.1 37.3108 9.06333 37.0975 8.99C36.8842 8.91667 36.7008 8.82333 36.5475 8.71C36.4008 8.59 36.2742 8.46 36.1675 8.32H36.1075C36.1208 8.43333 36.1342 8.57667 36.1475 8.75C36.1608 8.92333 36.1675 9.07333 36.1675 9.2V11.4H35.2875V3.64H36.0075L36.1275 4.37H36.1675C36.2742 4.21667 36.4008 4.07667 36.5475 3.95C36.7008 3.82333 36.8808 3.72333 37.0875 3.65C37.3008 3.57667 37.5508 3.54 37.8375 3.54ZM37.6775 4.28C37.3175 4.28 37.0275 4.35 36.8075 4.49C36.5875 4.62333 36.4275 4.82667 36.3275 5.1C36.2275 5.37333 36.1742 5.72 36.1675 6.14V6.31C36.1675 6.75 36.2142 7.12333 36.3075 7.43C36.4008 7.73667 36.5575 7.97 36.7775 8.13C37.0042 8.29 37.3108 8.37 37.6975 8.37C38.0242 8.37 38.2908 8.28 38.4975 8.1C38.7108 7.92 38.8675 7.67667 38.9675 7.37C39.0742 7.05667 39.1275 6.7 39.1275 6.3C39.1275 5.68667 39.0075 5.19667 38.7675 4.83C38.5342 4.46333 38.1708 4.28 37.6775 4.28ZM43.2298 8.38C43.3632 8.38 43.4998 8.37 43.6398 8.35C43.7798 8.32333 43.8932 8.29667 43.9798 8.27V8.94C43.8865 8.98667 43.7532 9.02333 43.5798 9.05C43.4065 9.08333 43.2398 9.1 43.0798 9.1C42.7998 9.1 42.5398 9.05333 42.2998 8.96C42.0665 8.86 41.8765 8.69 41.7298 8.45C41.5832 8.21 41.5098 7.87333 41.5098 7.44V4.32H40.7498V3.9L41.5198 3.55L41.8698 2.41H42.3898V3.64H43.9398V4.32H42.3898V7.42C42.3898 7.74667 42.4665 7.99 42.6198 8.15C42.7798 8.30333 42.9832 8.38 43.2298 8.38Z" fill="white"/>
</svg>
