<svg width="14" height="14" viewBox="0 0 14 14" fill="none" xmlns="http://www.w3.org/2000/svg">
<circle cx="7" cy="7" r="7" fill="#5B4E62"/>
<path d="M4.37469 3.46125L6.94803 6.03458L9.50803 3.47458C9.56457 3.41439 9.63269 3.36625 9.7083 3.33302C9.78391 3.2998 9.86545 3.28219 9.94803 3.28125C10.1248 3.28125 10.2944 3.35149 10.4194 3.47651C10.5445 3.60154 10.6147 3.77111 10.6147 3.94792C10.6162 4.02965 10.6011 4.11084 10.5701 4.1865C10.5392 4.26217 10.4931 4.33071 10.4347 4.38792L7.84136 6.94792L10.4347 9.54125C10.5446 9.64874 10.609 9.79431 10.6147 9.94792C10.6147 10.1247 10.5445 10.2943 10.4194 10.4193C10.2944 10.5443 10.1248 10.6146 9.94803 10.6146C9.86306 10.6181 9.77829 10.6039 9.6991 10.5729C9.61991 10.542 9.54803 10.4948 9.48803 10.4346L6.94803 7.86125L4.38136 10.4279C4.32503 10.4861 4.25773 10.5325 4.18336 10.5646C4.10898 10.5966 4.029 10.6136 3.94803 10.6146C3.77121 10.6146 3.60164 10.5443 3.47662 10.4193C3.3516 10.2943 3.28136 10.1247 3.28136 9.94792C3.2798 9.86618 3.29497 9.78499 3.32592 9.70933C3.35687 9.63367 3.40296 9.56513 3.46136 9.50792L6.05469 6.94792L3.46136 4.35458C3.35148 4.24709 3.28705 4.10152 3.28136 3.94792C3.28136 3.77111 3.3516 3.60154 3.47662 3.47651C3.60164 3.35149 3.77121 3.28125 3.94803 3.28125C4.10803 3.28325 4.26136 3.34792 4.37469 3.46125Z" fill="white"/>
</svg>
