<svg width="58" height="15" viewBox="0 0 58 15" fill="none" xmlns="http://www.w3.org/2000/svg">
<rect width="58" height="13" rx="6.5" fill="#FF7274"/>
<path d="M17.8218 5.36C17.8218 6.16 17.6718 6.83 17.3718 7.37C17.0785 7.91 16.6552 8.31667 16.1018 8.59C15.5485 8.86333 14.8785 9 14.0918 9H12.1018V1.86H14.3018C15.0218 1.86 15.6452 1.99333 16.1718 2.26C16.6985 2.52667 17.1052 2.92 17.3918 3.44C17.6785 3.95333 17.8218 4.59333 17.8218 5.36ZM16.8718 5.39C16.8718 4.75667 16.7652 4.23667 16.5518 3.83C16.3452 3.42333 16.0385 3.12333 15.6318 2.93C15.2318 2.73 14.7452 2.63 14.1718 2.63H13.0018V8.23H13.9718C14.9385 8.23 15.6618 7.99333 16.1418 7.52C16.6285 7.04 16.8718 6.33 16.8718 5.39ZM21.3565 3.54C21.8165 3.54 22.2099 3.64 22.5365 3.84C22.8699 4.04 23.1232 4.32333 23.2965 4.69C23.4765 5.05 23.5665 5.47333 23.5665 5.96V6.49H19.8965C19.9099 7.09667 20.0632 7.56 20.3565 7.88C20.6565 8.19333 21.0732 8.35 21.6065 8.35C21.9465 8.35 22.2465 8.32 22.5065 8.26C22.7732 8.19333 23.0465 8.1 23.3265 7.98V8.75C23.0532 8.87 22.7832 8.95667 22.5165 9.01C22.2499 9.07 21.9332 9.1 21.5665 9.1C21.0599 9.1 20.6099 8.99667 20.2165 8.79C19.8299 8.58333 19.5265 8.27667 19.3065 7.87C19.0932 7.45667 18.9865 6.95333 18.9865 6.36C18.9865 5.77333 19.0832 5.27 19.2765 4.85C19.4765 4.43 19.7532 4.10667 20.1065 3.88C20.4665 3.65333 20.8832 3.54 21.3565 3.54ZM21.3465 4.26C20.9265 4.26 20.5932 4.39667 20.3465 4.67C20.1065 4.93667 19.9632 5.31 19.9165 5.79H22.6465C22.6465 5.48333 22.5999 5.21667 22.5065 4.99C22.4132 4.76333 22.2699 4.58667 22.0765 4.46C21.8899 4.32667 21.6465 4.26 21.3465 4.26ZM27.0811 9.1C26.6077 9.1 26.1844 9.00333 25.8111 8.81C25.4444 8.61667 25.1544 8.31667 24.9411 7.91C24.7344 7.50333 24.6311 6.98333 24.6311 6.35C24.6311 5.69 24.7411 5.15333 24.9611 4.74C25.1811 4.32667 25.4777 4.02333 25.8511 3.83C26.2311 3.63667 26.6611 3.54 27.1411 3.54C27.4144 3.54 27.6777 3.57 27.9311 3.63C28.1844 3.68333 28.3911 3.75 28.5511 3.83L28.2811 4.56C28.1211 4.5 27.9344 4.44333 27.7211 4.39C27.5077 4.33667 27.3077 4.31 27.1211 4.31C26.7611 4.31 26.4644 4.38667 26.2311 4.54C25.9977 4.69333 25.8244 4.92 25.7111 5.22C25.5977 5.52 25.5411 5.89333 25.5411 6.34C25.5411 6.76667 25.5977 7.13 25.7111 7.43C25.8244 7.73 25.9944 7.95667 26.2211 8.11C26.4477 8.26333 26.7311 8.34 27.0711 8.34C27.3644 8.34 27.6211 8.31 27.8411 8.25C28.0677 8.19 28.2744 8.11667 28.4611 8.03V8.81C28.2811 8.90333 28.0811 8.97333 27.8611 9.02C27.6477 9.07333 27.3877 9.1 27.0811 9.1ZM30.6157 9H29.7357V1.4H30.6157V9ZM33.1939 3.64V9H32.3139V3.64H33.1939ZM32.7639 1.63C32.8972 1.63 33.0139 1.67667 33.1139 1.77C33.2205 1.85667 33.2739 1.99667 33.2739 2.19C33.2739 2.37667 33.2205 2.51667 33.1139 2.61C33.0139 2.70333 32.8972 2.75 32.7639 2.75C32.6172 2.75 32.4939 2.70333 32.3939 2.61C32.2939 2.51667 32.2439 2.37667 32.2439 2.19C32.2439 1.99667 32.2939 1.85667 32.3939 1.77C32.4939 1.67667 32.6172 1.63 32.7639 1.63ZM37.472 3.54C38.112 3.54 38.5953 3.69667 38.922 4.01C39.2487 4.31667 39.412 4.81667 39.412 5.51V9H38.542V5.57C38.542 5.13667 38.4453 4.81333 38.252 4.6C38.0587 4.38667 37.7553 4.28 37.342 4.28C36.7487 4.28 36.3387 4.44667 36.112 4.78C35.8853 5.11333 35.772 5.59333 35.772 6.22V9H34.892V3.64H35.602L35.732 4.37H35.782C35.902 4.18333 36.0487 4.03 36.222 3.91C36.402 3.78333 36.5987 3.69 36.812 3.63C37.0253 3.57 37.2453 3.54 37.472 3.54ZM43.1436 3.54C43.6036 3.54 43.997 3.64 44.3236 3.84C44.657 4.04 44.9103 4.32333 45.0836 4.69C45.2636 5.05 45.3536 5.47333 45.3536 5.96V6.49H41.6836C41.697 7.09667 41.8503 7.56 42.1436 7.88C42.4436 8.19333 42.8603 8.35 43.3936 8.35C43.7336 8.35 44.0336 8.32 44.2936 8.26C44.5603 8.19333 44.8336 8.1 45.1136 7.98V8.75C44.8403 8.87 44.5703 8.95667 44.3036 9.01C44.037 9.07 43.7203 9.1 43.3536 9.1C42.847 9.1 42.397 8.99667 42.0036 8.79C41.617 8.58333 41.3136 8.27667 41.0936 7.87C40.8803 7.45667 40.7736 6.95333 40.7736 6.36C40.7736 5.77333 40.8703 5.27 41.0636 4.85C41.2636 4.43 41.5403 4.10667 41.8936 3.88C42.2536 3.65333 42.6703 3.54 43.1436 3.54ZM43.1336 4.26C42.7136 4.26 42.3803 4.39667 42.1336 4.67C41.8936 4.93667 41.7503 5.31 41.7036 5.79H44.4336C44.4336 5.48333 44.387 5.21667 44.2936 4.99C44.2003 4.76333 44.057 4.58667 43.8636 4.46C43.677 4.32667 43.4336 4.26 43.1336 4.26Z" fill="white"/>
</svg>
