<svg width="30" height="39" viewBox="0 0 30 39" fill="none" xmlns="http://www.w3.org/2000/svg">
<mask id="path-1-inside-1_21_202" fill="white">
<path fill-rule="evenodd" clip-rule="evenodd" d="M14.7813 2.68642C12.3324 2.68689 9.94144 3.43075 7.92456 4.81961C5.90768 6.20847 4.35993 8.17689 3.48606 10.4645C2.61219 12.7521 2.45337 15.2511 3.0306 17.6309C3.60784 20.0107 4.89393 22.1592 6.71876 23.7923L6.72413 23.7994C7.72209 24.6935 8.47997 25.3707 9.02105 25.8688C9.53168 26.3346 9.9348 26.718 10.148 26.9796L10.1695 27.0065C10.5673 27.4956 10.9113 27.922 11.1406 28.4327C11.3681 28.9415 11.4541 29.4844 11.5545 30.1061L11.5598 30.1419C11.6118 30.4608 11.6315 30.8514 11.6405 31.3531H17.9221C17.931 30.8514 17.9507 30.4608 18.0027 30.1419L18.0081 30.1061C18.1084 29.4844 18.1944 28.9415 18.4219 28.4327C18.6513 27.922 18.9953 27.4956 19.393 27.0065L19.4145 26.9796C19.6277 26.718 20.0308 26.3346 20.5415 25.8688C21.0826 25.3707 21.8404 24.6935 22.8384 23.7994L22.8456 23.7923C24.6705 22.1591 25.9566 20.0105 26.5338 17.6305C27.111 15.2505 26.952 12.7513 26.0779 10.4637C25.2038 8.17598 23.6558 6.20757 21.6386 4.81885C19.6215 3.43013 17.2302 2.68653 14.7813 2.68642ZM17.9059 34.0406H11.6566C11.6638 34.2257 11.6733 34.3912 11.6853 34.5369C11.7211 34.94 11.7838 35.0869 11.8268 35.1604C11.9446 35.3642 12.1139 35.5335 12.3177 35.6513C12.3894 35.6943 12.5381 35.7552 12.9412 35.7928C13.3623 35.8305 13.9195 35.8323 14.7813 35.8323C15.6431 35.8323 16.2003 35.8323 16.6213 35.7928C17.0244 35.757 17.1713 35.6943 17.2448 35.6513C17.4486 35.5335 17.6179 35.3642 17.7357 35.1604C17.7787 35.0887 17.8414 34.94 17.8773 34.5369C17.8892 34.3912 17.8988 34.2257 17.9059 34.0406ZM9.91701e-06 14.7802C0.000189969 12.3148 0.617015 9.88866 1.79433 7.72257C2.97164 5.55649 4.67205 3.71928 6.74075 2.37821C8.80945 1.03714 11.1807 0.234794 13.6387 0.044228C16.0967 -0.146338 18.5633 0.280925 20.814 1.28712C23.0647 2.29331 25.0279 3.84648 26.525 5.80522C28.0221 7.76395 29.0055 10.066 29.3857 12.5019C29.7659 14.9378 29.5307 17.4301 28.7017 19.7518C27.8727 22.0736 26.476 24.1512 24.639 25.7953C23.8747 26.4759 23.1138 27.1603 22.3564 27.8486C22.0889 28.0944 21.8261 28.3453 21.5681 28.6011L21.5036 28.671C21.0378 29.2461 20.9356 29.3948 20.8765 29.5292C20.8156 29.6635 20.7726 29.8373 20.6561 30.5683C20.6096 30.8568 20.6042 31.3513 20.6042 32.6968V32.7542C20.6042 33.5425 20.6042 34.2233 20.554 34.7788C20.5003 35.37 20.382 35.9541 20.0649 36.5041C19.711 37.1174 19.2018 37.6265 18.5886 37.9805C18.0385 38.2976 17.4544 38.4158 16.865 38.4696C16.306 38.5198 15.6269 38.5198 14.8404 38.5198H14.7239C13.9356 38.5198 13.2548 38.5198 12.6993 38.4696C12.1081 38.4158 11.524 38.2976 10.974 37.9805C10.3607 37.6265 9.85156 37.1174 9.49763 36.5041C9.18051 35.9541 9.06226 35.37 9.00851 34.7805C8.95834 34.2215 8.95834 33.5425 8.95834 32.756V32.6968C8.95834 31.3531 8.95297 30.8568 8.90638 30.5683C8.78993 29.8373 8.74513 29.6635 8.68601 29.5292C8.62688 29.3948 8.52476 29.2461 8.05893 28.6692L8.04101 28.6513L7.99443 28.5993L7.82063 28.4255C7.61846 28.2304 7.41359 28.0381 7.20609 27.8486C6.67755 27.3648 5.93043 26.6965 4.92351 25.7953C3.37256 24.4102 2.13209 22.7128 1.28356 20.8144C0.435019 18.916 -0.0024016 16.8596 9.91701e-06 14.7802ZM11.0044 21.6781C11.1572 21.5897 11.326 21.5323 11.501 21.5091C11.676 21.4859 11.8538 21.4974 12.0244 21.543C12.1949 21.5886 12.3548 21.6674 12.4949 21.7748C12.635 21.8822 12.7526 22.0161 12.8409 22.169C13.0373 22.5099 13.3201 22.793 13.6607 22.9898C14.0014 23.1866 14.3878 23.2903 14.7813 23.2903C15.1747 23.2903 15.5611 23.1866 15.9018 22.9898C16.2424 22.793 16.5252 22.5099 16.7216 22.169C16.8101 22.0162 16.9278 21.8823 17.068 21.775C17.2082 21.6676 17.3682 21.589 17.5388 21.5435C17.7094 21.498 17.8873 21.4865 18.0624 21.5098C18.2374 21.533 18.4062 21.5905 18.559 21.679C18.7118 21.7675 18.8457 21.8852 18.953 22.0254C19.0604 22.1656 19.139 22.3256 19.1845 22.4962C19.23 22.6668 19.2415 22.8447 19.2182 23.0197C19.195 23.1948 19.1375 23.3635 19.049 23.5163C18.4061 24.6251 17.3577 25.4409 16.125 25.7918V28.2177C16.125 28.5741 15.9834 28.9158 15.7314 29.1678C15.4794 29.4199 15.1376 29.5614 14.7813 29.5614C14.4249 29.5614 14.0831 29.4199 13.8311 29.1678C13.5791 28.9158 13.4375 28.5741 13.4375 28.2177V25.7918C12.2048 25.4409 11.1565 24.6251 10.5135 23.5163C10.4251 23.3635 10.3677 23.1948 10.3445 23.0198C10.3213 22.8448 10.3329 22.6669 10.3785 22.4964C10.424 22.3258 10.5028 22.166 10.6102 22.0259C10.7176 21.8858 10.8516 21.7664 11.0044 21.6781Z"/>
</mask>
<path fill-rule="evenodd" clip-rule="evenodd" d="M14.7813 2.68642C12.3324 2.68689 9.94144 3.43075 7.92456 4.81961C5.90768 6.20847 4.35993 8.17689 3.48606 10.4645C2.61219 12.7521 2.45337 15.2511 3.0306 17.6309C3.60784 20.0107 4.89393 22.1592 6.71876 23.7923L6.72413 23.7994C7.72209 24.6935 8.47997 25.3707 9.02105 25.8688C9.53168 26.3346 9.9348 26.718 10.148 26.9796L10.1695 27.0065C10.5673 27.4956 10.9113 27.922 11.1406 28.4327C11.3681 28.9415 11.4541 29.4844 11.5545 30.1061L11.5598 30.1419C11.6118 30.4608 11.6315 30.8514 11.6405 31.3531H17.9221C17.931 30.8514 17.9507 30.4608 18.0027 30.1419L18.0081 30.1061C18.1084 29.4844 18.1944 28.9415 18.4219 28.4327C18.6513 27.922 18.9953 27.4956 19.393 27.0065L19.4145 26.9796C19.6277 26.718 20.0308 26.3346 20.5415 25.8688C21.0826 25.3707 21.8404 24.6935 22.8384 23.7994L22.8456 23.7923C24.6705 22.1591 25.9566 20.0105 26.5338 17.6305C27.111 15.2505 26.952 12.7513 26.0779 10.4637C25.2038 8.17598 23.6558 6.20757 21.6386 4.81885C19.6215 3.43013 17.2302 2.68653 14.7813 2.68642ZM17.9059 34.0406H11.6566C11.6638 34.2257 11.6733 34.3912 11.6853 34.5369C11.7211 34.94 11.7838 35.0869 11.8268 35.1604C11.9446 35.3642 12.1139 35.5335 12.3177 35.6513C12.3894 35.6943 12.5381 35.7552 12.9412 35.7928C13.3623 35.8305 13.9195 35.8323 14.7813 35.8323C15.6431 35.8323 16.2003 35.8323 16.6213 35.7928C17.0244 35.757 17.1713 35.6943 17.2448 35.6513C17.4486 35.5335 17.6179 35.3642 17.7357 35.1604C17.7787 35.0887 17.8414 34.94 17.8773 34.5369C17.8892 34.3912 17.8988 34.2257 17.9059 34.0406ZM9.91701e-06 14.7802C0.000189969 12.3148 0.617015 9.88866 1.79433 7.72257C2.97164 5.55649 4.67205 3.71928 6.74075 2.37821C8.80945 1.03714 11.1807 0.234794 13.6387 0.044228C16.0967 -0.146338 18.5633 0.280925 20.814 1.28712C23.0647 2.29331 25.0279 3.84648 26.525 5.80522C28.0221 7.76395 29.0055 10.066 29.3857 12.5019C29.7659 14.9378 29.5307 17.4301 28.7017 19.7518C27.8727 22.0736 26.476 24.1512 24.639 25.7953C23.8747 26.4759 23.1138 27.1603 22.3564 27.8486C22.0889 28.0944 21.8261 28.3453 21.5681 28.6011L21.5036 28.671C21.0378 29.2461 20.9356 29.3948 20.8765 29.5292C20.8156 29.6635 20.7726 29.8373 20.6561 30.5683C20.6096 30.8568 20.6042 31.3513 20.6042 32.6968V32.7542C20.6042 33.5425 20.6042 34.2233 20.554 34.7788C20.5003 35.37 20.382 35.9541 20.0649 36.5041C19.711 37.1174 19.2018 37.6265 18.5886 37.9805C18.0385 38.2976 17.4544 38.4158 16.865 38.4696C16.306 38.5198 15.6269 38.5198 14.8404 38.5198H14.7239C13.9356 38.5198 13.2548 38.5198 12.6993 38.4696C12.1081 38.4158 11.524 38.2976 10.974 37.9805C10.3607 37.6265 9.85156 37.1174 9.49763 36.5041C9.18051 35.9541 9.06226 35.37 9.00851 34.7805C8.95834 34.2215 8.95834 33.5425 8.95834 32.756V32.6968C8.95834 31.3531 8.95297 30.8568 8.90638 30.5683C8.78993 29.8373 8.74513 29.6635 8.68601 29.5292C8.62688 29.3948 8.52476 29.2461 8.05893 28.6692L8.04101 28.6513L7.99443 28.5993L7.82063 28.4255C7.61846 28.2304 7.41359 28.0381 7.20609 27.8486C6.67755 27.3648 5.93043 26.6965 4.92351 25.7953C3.37256 24.4102 2.13209 22.7128 1.28356 20.8144C0.435019 18.916 -0.0024016 16.8596 9.91701e-06 14.7802ZM11.0044 21.6781C11.1572 21.5897 11.326 21.5323 11.501 21.5091C11.676 21.4859 11.8538 21.4974 12.0244 21.543C12.1949 21.5886 12.3548 21.6674 12.4949 21.7748C12.635 21.8822 12.7526 22.0161 12.8409 22.169C13.0373 22.5099 13.3201 22.793 13.6607 22.9898C14.0014 23.1866 14.3878 23.2903 14.7813 23.2903C15.1747 23.2903 15.5611 23.1866 15.9018 22.9898C16.2424 22.793 16.5252 22.5099 16.7216 22.169C16.8101 22.0162 16.9278 21.8823 17.068 21.775C17.2082 21.6676 17.3682 21.589 17.5388 21.5435C17.7094 21.498 17.8873 21.4865 18.0624 21.5098C18.2374 21.533 18.4062 21.5905 18.559 21.679C18.7118 21.7675 18.8457 21.8852 18.953 22.0254C19.0604 22.1656 19.139 22.3256 19.1845 22.4962C19.23 22.6668 19.2415 22.8447 19.2182 23.0197C19.195 23.1948 19.1375 23.3635 19.049 23.5163C18.4061 24.6251 17.3577 25.4409 16.125 25.7918V28.2177C16.125 28.5741 15.9834 28.9158 15.7314 29.1678C15.4794 29.4199 15.1376 29.5614 14.7813 29.5614C14.4249 29.5614 14.0831 29.4199 13.8311 29.1678C13.5791 28.9158 13.4375 28.5741 13.4375 28.2177V25.7918C12.2048 25.4409 11.1565 24.6251 10.5135 23.5163C10.4251 23.3635 10.3677 23.1948 10.3445 23.0198C10.3213 22.8448 10.3329 22.6669 10.3785 22.4964C10.424 22.3258 10.5028 22.166 10.6102 22.0259C10.7176 21.8858 10.8516 21.7664 11.0044 21.6781Z" fill="#7A1E43" stroke="black" stroke-width="2" mask="url(#path-1-inside-1_21_202)"/>
</svg>
