<svg width="32" height="31" viewBox="0 0 32 31" fill="none" xmlns="http://www.w3.org/2000/svg">
<g opacity="0.2">
<path d="M14.9153 12.7527C14.9153 14.1354 14.3438 15.4615 13.3267 16.4392C12.3095 17.4169 10.93 17.9662 9.49154 17.9662C8.05308 17.9662 6.67353 17.4169 5.65638 16.4392C4.63924 15.4615 4.06781 14.1354 4.06781 12.7527C4.06781 11.37 4.63924 10.0439 5.65638 9.06619C6.67353 8.08846 8.05308 7.53918 9.49154 7.53918C10.93 7.53918 12.3095 8.08846 13.3267 9.06619C14.3438 10.0439 14.9153 11.37 14.9153 12.7527Z" fill="white"/>
<path fill-rule="evenodd" clip-rule="evenodd" d="M9.49154 14.4905C9.97103 14.4905 10.4309 14.3074 10.7699 13.9815C11.109 13.6556 11.2994 13.2136 11.2994 12.7527C11.2994 12.2918 11.109 11.8498 10.7699 11.5239C10.4309 11.198 9.97103 11.0149 9.49154 11.0149C9.01205 11.0149 8.5522 11.198 8.21315 11.5239C7.8741 11.8498 7.68363 12.2918 7.68363 12.7527C7.68363 13.2136 7.8741 13.6556 8.21315 13.9815C8.5522 14.3074 9.01205 14.4905 9.49154 14.4905ZM9.49154 17.9662C10.2038 17.9662 10.9091 17.8314 11.5671 17.5693C12.2251 17.3073 12.8231 16.9233 13.3267 16.4392C13.8303 15.9551 14.2298 15.3803 14.5024 14.7478C14.775 14.1153 14.9153 13.4373 14.9153 12.7527C14.9153 12.068 14.775 11.3901 14.5024 10.7576C14.2298 10.125 13.8303 9.55031 13.3267 9.06619C12.8231 8.58207 12.2251 8.19804 11.5671 7.93604C10.9091 7.67404 10.2038 7.53918 9.49154 7.53918C8.05308 7.53918 6.67353 8.08846 5.65638 9.06619C4.63924 10.0439 4.06781 11.37 4.06781 12.7527C4.06781 14.1354 4.63924 15.4615 5.65638 16.4392C6.67353 17.4169 8.05308 17.9662 9.49154 17.9662Z" fill="white"/>
<path fill-rule="evenodd" clip-rule="evenodd" d="M9.58208 19.2696C8.86285 19.2696 8.17307 19.5443 7.6645 20.0331C7.15593 20.522 6.87021 21.185 6.87021 21.8764V24.4831C6.87021 24.944 6.67974 25.3861 6.34069 25.712C6.00164 26.0379 5.54179 26.221 5.0623 26.221C4.58282 26.221 4.12297 26.0379 3.78392 25.712C3.44487 25.3861 3.25439 24.944 3.25439 24.4831V21.8764C3.25439 20.2632 3.92106 18.7161 5.10773 17.5754C6.2944 16.4348 7.90387 15.7939 9.58208 15.7939C11.2603 15.7939 12.8698 16.4348 14.0564 17.5754C15.2431 18.7161 15.9098 20.2632 15.9098 21.8764V22.7453C15.9098 23.2062 15.7193 23.6482 15.3802 23.9741C15.0412 24.3 14.5813 24.4831 14.1019 24.4831C13.6224 24.4831 13.1625 24.3 12.8235 23.9741C12.4844 23.6482 12.2939 23.2062 12.2939 22.7453V21.8764C12.2939 21.185 12.0082 20.522 11.4997 20.0331C10.9911 19.5443 10.3013 19.2696 9.58208 19.2696Z" fill="white"/>
<path d="M20.339 12.7527C20.339 14.1354 20.9104 15.4615 21.9276 16.4392C22.9447 17.4169 24.3243 17.9662 25.7627 17.9662C27.2012 17.9662 28.5807 17.4169 29.5979 16.4392C30.615 15.4615 31.1864 14.1354 31.1864 12.7527C31.1864 11.37 30.615 10.0439 29.5979 9.06619C28.5807 8.08846 27.2012 7.53918 25.7627 7.53918C24.3243 7.53918 22.9447 8.08846 21.9276 9.06619C20.9104 10.0439 20.339 11.37 20.339 12.7527Z" fill="white"/>
<path fill-rule="evenodd" clip-rule="evenodd" d="M25.7627 14.4905C25.2832 14.4905 24.8234 14.3074 24.4843 13.9815C24.1453 13.6556 23.9548 13.2136 23.9548 12.7527C23.9548 12.2918 24.1453 11.8498 24.4843 11.5239C24.8234 11.198 25.2832 11.0149 25.7627 11.0149C26.2422 11.0149 26.7021 11.198 27.0411 11.5239C27.3802 11.8498 27.5706 12.2918 27.5706 12.7527C27.5706 13.2136 27.3802 13.6556 27.0411 13.9815C26.7021 14.3074 26.2422 14.4905 25.7627 14.4905ZM25.7627 17.9662C25.0505 17.9662 24.3452 17.8314 23.6871 17.5693C23.0291 17.3073 22.4312 16.9233 21.9276 16.4392C21.4239 15.9551 21.0244 15.3803 20.7518 14.7478C20.4793 14.1153 20.339 13.4373 20.339 12.7527C20.339 12.068 20.4793 11.3901 20.7518 10.7576C21.0244 10.125 21.4239 9.55031 21.9276 9.06619C22.4312 8.58207 23.0291 8.19804 23.6871 7.93604C24.3452 7.67404 25.0505 7.53918 25.7627 7.53918C27.2012 7.53918 28.5807 8.08846 29.5979 9.06619C30.615 10.0439 31.1864 11.37 31.1864 12.7527C31.1864 14.1354 30.615 15.4615 29.5979 16.4392C28.5807 17.4169 27.2012 17.9662 25.7627 17.9662Z" fill="white"/>
<path fill-rule="evenodd" clip-rule="evenodd" d="M25.6722 19.2696C26.3914 19.2696 27.0812 19.5443 27.5897 20.0331C28.0983 20.522 28.384 21.185 28.384 21.8764V24.4831C28.384 24.944 28.5745 25.3861 28.9136 25.712C29.2526 26.0379 29.7125 26.221 30.1919 26.221C30.6714 26.221 31.1313 26.0379 31.4703 25.712C31.8094 25.3861 31.9999 24.944 31.9999 24.4831V21.8764C31.9999 20.2632 31.3332 18.7161 30.1465 17.5754C28.9598 16.4348 27.3504 15.7939 25.6722 15.7939C23.994 15.7939 22.3845 16.4348 21.1978 17.5754C20.0111 18.7161 19.3445 20.2632 19.3445 21.8764V22.7453C19.3445 23.2062 19.535 23.6482 19.874 23.9741C20.2131 24.3 20.6729 24.4831 21.1524 24.4831C21.6319 24.4831 22.0917 24.3 22.4308 23.9741C22.7698 23.6482 22.9603 23.2062 22.9603 22.7453V21.8764C22.9603 21.185 23.246 20.522 23.7546 20.0331C24.2632 19.5443 24.9529 19.2696 25.6722 19.2696Z" fill="white"/>
<path fill-rule="evenodd" clip-rule="evenodd" d="M17.7176 24.0487C16.9983 24.0487 16.3086 24.3233 15.8 24.8122C15.2914 25.301 15.0057 25.9641 15.0057 26.6554V29.2622C15.0057 29.7231 14.8152 30.1651 14.4762 30.491C14.1371 30.8169 13.6773 31 13.1978 31C12.7183 31 12.2585 30.8169 11.9194 30.491C11.5804 30.1651 11.3899 29.7231 11.3899 29.2622V26.6554C11.3899 25.0423 12.0566 23.4952 13.2432 22.3545C14.4299 21.2138 16.0394 20.573 17.7176 20.573C19.3958 20.573 21.0053 21.2138 22.1919 22.3545C23.3786 23.4952 24.0453 25.0423 24.0453 26.6554V29.2622C24.0453 29.7231 23.8548 30.1651 23.5157 30.491C23.1767 30.8169 22.7168 31 22.2374 31C21.7579 31 21.298 30.8169 20.959 30.491C20.6199 30.1651 20.4294 29.7231 20.4294 29.2622V26.6554C20.4294 25.9641 20.1437 25.301 19.6352 24.8122C19.1266 24.3233 18.4368 24.0487 17.7176 24.0487Z" fill="white"/>
<path d="M23.0508 17.5318C23.0508 18.9145 22.4794 20.2406 21.4623 21.2183C20.4451 22.196 19.0656 22.7453 17.6271 22.7453C16.1886 22.7453 14.8091 22.196 13.7919 21.2183C12.7748 20.2406 12.2034 18.9145 12.2034 17.5318C12.2034 16.1491 12.7748 14.823 13.7919 13.8453C14.8091 12.8676 16.1886 12.3183 17.6271 12.3183C19.0656 12.3183 20.4451 12.8676 21.4623 13.8453C22.4794 14.823 23.0508 16.1491 23.0508 17.5318Z" fill="white"/>
<path fill-rule="evenodd" clip-rule="evenodd" d="M17.6271 19.2696C18.1066 19.2696 18.5664 19.0866 18.9055 18.7606C19.2445 18.4347 19.435 17.9927 19.435 17.5318C19.435 17.0709 19.2445 16.6289 18.9055 16.303C18.5664 15.9771 18.1066 15.794 17.6271 15.794C17.1476 15.794 16.6878 15.9771 16.3487 16.303C16.0097 16.6289 15.8192 17.0709 15.8192 17.5318C15.8192 17.9927 16.0097 18.4347 16.3487 18.7606C16.6878 19.0866 17.1476 19.2696 17.6271 19.2696ZM17.6271 22.7453C19.0656 22.7453 20.4451 22.196 21.4623 21.2183C22.4794 20.2406 23.0508 18.9145 23.0508 17.5318C23.0508 16.1491 22.4794 14.823 21.4623 13.8453C20.4451 12.8676 19.0656 12.3183 17.6271 12.3183C16.1886 12.3183 14.8091 12.8676 13.7919 13.8453C12.7748 14.823 12.2034 16.1491 12.2034 17.5318C12.2034 18.9145 12.7748 20.2406 13.7919 21.2183C14.8091 22.196 16.1886 22.7453 17.6271 22.7453Z" fill="white"/>
<path d="M4.97168 19.2697H14.0112V26.221H4.97168V19.2697ZM21.2429 19.2697H30.2824V26.221H21.2429V19.2697Z" fill="white"/>
<path d="M14.0114 22.7453H21.243L22.147 31H13.1074L14.0114 22.7453Z" fill="white"/>
</g>
<path fill-rule="evenodd" clip-rule="evenodd" d="M6.32778 14.925C7.28676 14.925 8.20645 14.5588 8.88455 13.907C9.56265 13.2552 9.9436 12.3712 9.9436 11.4493C9.9436 10.5275 9.56265 9.64349 8.88455 8.99168C8.20645 8.33986 7.28676 7.97368 6.32778 7.97368C5.36881 7.97368 4.44911 8.33986 3.77101 8.99168C3.09291 9.64349 2.71196 10.5275 2.71196 11.4493C2.71196 12.3712 3.09291 13.2552 3.77101 13.907C4.44911 14.5588 5.36881 14.925 6.32778 14.925ZM6.32778 16.6629C7.04004 16.6629 7.74532 16.528 8.40335 16.266C9.06139 16.004 9.6593 15.62 10.1629 15.1359C10.6666 14.6517 11.0661 14.077 11.3387 13.4445C11.6112 12.8119 11.7515 12.134 11.7515 11.4493C11.7515 10.7647 11.6112 10.0868 11.3387 9.45423C11.0661 8.82169 10.6666 8.24696 10.1629 7.76284C9.6593 7.27872 9.06139 6.8947 8.40335 6.63269C7.74532 6.37069 7.04004 6.23584 6.32778 6.23584C4.88932 6.23584 3.50977 6.78512 2.49263 7.76284C1.47548 8.74056 0.904053 10.0666 0.904053 11.4493C0.904053 12.8321 1.47548 14.1581 2.49263 15.1359C3.50977 16.1136 4.88932 16.6629 6.32778 16.6629Z" fill="white"/>
<path fill-rule="evenodd" clip-rule="evenodd" d="M4.25582 14.7443C4.34 14.825 4.40679 14.9209 4.45236 15.0264C4.49793 15.132 4.52139 15.2452 4.52139 15.3595C4.52139 15.4738 4.49793 15.5869 4.45236 15.6925C4.40679 15.7981 4.34 15.894 4.25582 15.9747L3.64475 16.5603C2.46876 17.691 1.80806 19.2244 1.80791 20.8232V24.0487C1.80791 24.2791 1.71267 24.5001 1.54315 24.6631C1.37362 24.826 1.1437 24.9176 0.903955 24.9176C0.664211 24.9176 0.434287 24.826 0.264762 24.6631C0.0952378 24.5001 0 24.2791 0 24.0487V20.8232C0.000256288 18.7635 0.8515 16.7882 2.36655 15.3317L2.97582 14.7443C3.05979 14.6634 3.15954 14.5992 3.26936 14.5554C3.37918 14.5116 3.49692 14.489 3.61582 14.489C3.73472 14.489 3.85245 14.5116 3.96228 14.5554C4.0721 14.5992 4.17185 14.6634 4.25582 14.7443ZM25.5747 14.2229C25.4905 14.3036 25.4237 14.3995 25.3781 14.5051C25.3326 14.6107 25.3091 14.7238 25.3091 14.8381C25.3091 14.9524 25.3326 15.0656 25.3781 15.1712C25.4237 15.2767 25.4905 15.3726 25.5747 15.4533L26.1858 16.039C27.3617 17.1697 28.0224 18.703 28.0226 20.3019V24.0487C28.0226 24.2791 28.1178 24.5001 28.2874 24.6631C28.4569 24.826 28.6868 24.9176 28.9266 24.9176C29.1663 24.9176 29.3962 24.826 29.5657 24.6631C29.7353 24.5001 29.8305 24.2791 29.8305 24.0487V20.3019C29.8302 18.2422 28.979 16.2669 27.464 14.8103L26.8547 14.2229C26.7707 14.142 26.671 14.0778 26.5611 14.034C26.4513 13.9902 26.3336 13.9677 26.2147 13.9677C26.0958 13.9677 25.9781 13.9902 25.8682 14.034C25.7584 14.0778 25.6587 14.142 25.5747 14.2229Z" fill="white"/>
<path fill-rule="evenodd" clip-rule="evenodd" d="M22.5988 14.925C21.6398 14.925 20.7201 14.5588 20.042 13.907C19.3639 13.2552 18.983 12.3712 18.983 11.4493C18.983 10.5275 19.3639 9.64349 20.042 8.99168C20.7201 8.33986 21.6398 7.97368 22.5988 7.97368C23.5577 7.97368 24.4774 8.33986 25.1555 8.99168C25.8336 9.64349 26.2146 10.5275 26.2146 11.4493C26.2146 12.3712 25.8336 13.2552 25.1555 13.907C24.4774 14.5588 23.5577 14.925 22.5988 14.925ZM22.5988 16.6629C21.8865 16.6629 21.1812 16.528 20.5232 16.266C19.8652 16.004 19.2673 15.62 18.7636 15.1359C18.26 14.6517 17.8605 14.077 17.5879 13.4445C17.3153 12.8119 17.175 12.134 17.175 11.4493C17.175 10.7647 17.3153 10.0868 17.5879 9.45423C17.8605 8.82169 18.26 8.24696 18.7636 7.76284C19.2673 7.27872 19.8652 6.8947 20.5232 6.63269C21.1812 6.37069 21.8865 6.23584 22.5988 6.23584C24.0372 6.23584 25.4168 6.78512 26.4339 7.76284C27.4511 8.74056 28.0225 10.0666 28.0225 11.4493C28.0225 12.8321 27.4511 14.1581 26.4339 15.1359C25.4168 16.1136 24.0372 16.6629 22.5988 16.6629ZM14.4632 22.3108C13.2645 22.3108 12.1148 22.7686 11.2672 23.5833C10.4196 24.3981 9.94341 25.5032 9.94341 26.6554V28.9146C9.94341 29.1451 9.84817 29.3661 9.67865 29.529C9.50912 29.692 9.2792 29.7835 9.03945 29.7835C8.79971 29.7835 8.56978 29.692 8.40026 29.529C8.23074 29.3661 8.1355 29.1451 8.1355 28.9146V26.6554C8.1355 25.0423 8.80216 23.4952 9.98883 22.3545C11.1755 21.2138 12.785 20.573 14.4632 20.573C16.1414 20.573 17.7509 21.2138 18.9375 22.3545C20.1242 23.4952 20.7909 25.0423 20.7909 26.6554V28.9146C20.7909 29.1451 20.6956 29.3661 20.5261 29.529C20.3566 29.692 20.1267 29.7835 19.8869 29.7835C19.6472 29.7835 19.4172 29.692 19.2477 29.529C19.0782 29.3661 18.983 29.1451 18.983 28.9146V26.6554C18.983 26.0849 18.866 25.5199 18.6389 24.9928C18.4118 24.4657 18.0788 23.9868 17.6591 23.5833C17.2394 23.1799 16.7412 22.8599 16.1928 22.6415C15.6445 22.4232 15.0567 22.3108 14.4632 22.3108Z" fill="white"/>
<path fill-rule="evenodd" clip-rule="evenodd" d="M14.4633 19.7041C15.4223 19.7041 16.342 19.3379 17.02 18.6861C17.6981 18.0343 18.0791 17.1502 18.0791 16.2284C18.0791 15.3066 17.6981 14.4225 17.02 13.7707C16.342 13.1189 15.4223 12.7527 14.4633 12.7527C13.5043 12.7527 12.5846 13.1189 11.9065 13.7707C11.2284 14.4225 10.8475 15.3066 10.8475 16.2284C10.8475 17.1502 11.2284 18.0343 11.9065 18.6861C12.5846 19.3379 13.5043 19.7041 14.4633 19.7041ZM14.4633 21.4419C15.9017 21.4419 17.2813 20.8926 18.2984 19.9149C19.3156 18.9372 19.887 17.6111 19.887 16.2284C19.887 14.8457 19.3156 13.5196 18.2984 12.5419C17.2813 11.5642 15.9017 11.0149 14.4633 11.0149C13.0248 11.0149 11.6453 11.5642 10.6281 12.5419C9.61098 13.5196 9.03955 14.8457 9.03955 16.2284C9.03955 17.6111 9.61098 18.9372 10.6281 19.9149C11.6453 20.8926 13.0248 21.4419 14.4633 21.4419Z" fill="white"/>
<path d="M14.1908 7.68993V5.14798L11.8092 6.41895L11 5.12662L13.3815 3.84496L11 2.57399L11.8092 1.28165L14.1908 2.55263V0H15.8092V2.55263L18.1908 1.28165L19 2.57399L16.6185 3.84496L19 5.12662L18.1908 6.41895L15.8092 5.14798V7.68993H14.1908Z" fill="white"/>
</svg>
