<svg width="28" height="28" viewBox="0 0 28 28" fill="none" xmlns="http://www.w3.org/2000/svg">
<circle cx="14" cy="14" r="14" fill="#5B4E62"/>
<path d="M8.74938 6.9225L13.8961 12.0692L19.0161 6.94917C19.1291 6.82879 19.2654 6.73249 19.4166 6.66605C19.5678 6.59961 19.7309 6.56439 19.8961 6.5625C20.2497 6.5625 20.5888 6.70298 20.8389 6.95302C21.0889 7.20307 21.2294 7.54221 21.2294 7.89583C21.2325 8.0593 21.2022 8.22168 21.1403 8.37301C21.0784 8.52433 20.9862 8.66141 20.8694 8.77583L15.6827 13.8958L20.8694 19.0825C21.0891 19.2975 21.218 19.5886 21.2294 19.8958C21.2294 20.2495 21.0889 20.5886 20.8389 20.8386C20.5888 21.0887 20.2497 21.2292 19.8961 21.2292C19.7261 21.2362 19.5566 21.2079 19.3982 21.1459C19.2398 21.0839 19.0961 20.9897 18.9761 20.8692L13.8961 15.7225L8.76272 20.8558C8.65006 20.9722 8.51547 21.0651 8.36672 21.1292C8.21797 21.1933 8.058 21.2272 7.89605 21.2292C7.54243 21.2292 7.20329 21.0887 6.95324 20.8386C6.70319 20.5886 6.56272 20.2495 6.56272 19.8958C6.55961 19.7324 6.58994 19.57 6.65184 19.4187C6.71375 19.2673 6.80593 19.1303 6.92272 19.0158L12.1094 13.8958L6.92272 8.70917C6.70296 8.49418 6.5741 8.20305 6.56272 7.89583C6.56272 7.54221 6.70319 7.20307 6.95324 6.95302C7.20329 6.70298 7.54243 6.5625 7.89605 6.5625C8.21605 6.5665 8.52272 6.69583 8.74938 6.9225Z" fill="white"/>
</svg>
