<svg width="47" height="52" viewBox="0 0 47 52" fill="none" xmlns="http://www.w3.org/2000/svg">
<path d="M23.1055 0.5C29.1031 0.500016 34.854 2.84797 39.0928 7.02539C43.3312 11.2025 45.7108 16.8665 45.7109 22.7705C45.7109 30.3563 41.5133 36.6018 37.0215 41.127C34.779 43.3613 32.3321 45.3871 29.7119 47.1787L28.6182 47.9121L28.1182 48.2402L27.1582 48.8428L26.2959 49.3613L25.2344 49.9688C24.5859 50.3323 23.8525 50.5244 23.1055 50.5244C22.3582 50.5244 21.6242 50.3326 20.9756 49.9688L19.916 49.3623H19.917L18.582 48.5527L18.0996 48.2432H18.0986L17.0518 47.5557C14.4013 45.7881 11.9213 43.7851 9.64258 41.5723L9.18945 41.127C4.69749 36.5992 0.5 30.3562 0.5 22.7705C0.500113 16.8664 2.87973 11.2025 7.11816 7.02539C11.357 2.84796 17.1078 0.5 23.1055 0.5ZM23.1055 14.6807C22.0294 14.6807 20.9633 14.8899 19.9688 15.2959C18.9744 15.7019 18.0704 16.2971 17.3086 17.0479C16.5467 17.7988 15.9421 18.6908 15.5293 19.6729C15.1166 20.6548 14.9034 21.7073 14.9033 22.7705C14.9033 23.8339 15.1165 24.8871 15.5293 25.8691C15.9421 26.8512 16.5466 27.7432 17.3086 28.4941C18.0704 29.2449 18.9744 29.8401 19.9688 30.2461C20.9633 30.6521 22.0294 30.8613 23.1055 30.8613C25.2784 30.8613 27.3637 30.0105 28.9023 28.4941C30.4413 26.9775 31.3076 24.9186 31.3076 22.7705C31.3075 20.6226 30.4411 18.5644 28.9023 17.0479C27.3637 15.5315 25.2784 14.6807 23.1055 14.6807Z" fill="#261A2D" stroke="#E9E9E9"/>
</svg>
